<svg width="185" height="31" viewBox="0 0 185 31" fill="none" xmlns="http://www.w3.org/2000/svg">
<path d="M0.896307 24V2.18182H15.3423V5.98508H5.50923V11.1839H14.3835V14.9872H5.50923V24H0.896307ZM22.8983 2.18182V24H18.3599V2.18182H22.8983ZM29.3356 30.1364C28.7603 30.1364 28.2205 30.0902 27.7163 29.9979C27.2191 29.9126 26.8072 29.8026 26.4805 29.6676L27.5032 26.2798C28.0359 26.4432 28.5153 26.532 28.9414 26.5462C29.3746 26.5604 29.7475 26.4609 30.06 26.2479C30.3796 26.0348 30.6388 25.6726 30.8377 25.1612L31.104 24.4688L25.234 7.63636H30.0067L33.3945 19.6534H33.565L36.9847 7.63636H41.7894L35.4293 25.7685C35.1239 26.6491 34.7085 27.4162 34.1829 28.0696C33.6644 28.7301 33.0075 29.2379 32.212 29.593C31.4165 29.9553 30.4577 30.1364 29.3356 30.1364ZM55.7534 2.18182V24H51.1404V2.18182H55.7534ZM64.0018 14.5398V24H59.4634V7.63636H63.7887V10.5234H63.9805C64.3427 9.57173 64.9499 8.81889 65.8022 8.26491C66.6545 7.70384 67.6879 7.4233 68.9023 7.4233C70.0387 7.4233 71.0295 7.67187 71.8746 8.16903C72.7198 8.66619 73.3768 9.37642 73.8455 10.2997C74.3143 11.2159 74.5487 12.3097 74.5487 13.581V24H70.0103V14.3906C70.0174 13.3892 69.7617 12.608 69.2433 12.0469C68.7248 11.4787 68.011 11.1946 67.1019 11.1946C66.4911 11.1946 65.9513 11.326 65.4826 11.5888C65.021 11.8516 64.6587 12.2351 64.396 12.7393C64.1403 13.2365 64.0089 13.8366 64.0018 14.5398ZM85.1541 2.18182H90.843L96.8516 16.8409H97.1072L103.116 2.18182H108.805V24H104.33V9.79901H104.149L98.5028 23.8935H95.456L89.8097 9.74574H89.6286V24H85.1541V2.18182ZM112.52 24V7.63636H117.058V24H112.52ZM114.8 5.52699C114.125 5.52699 113.546 5.30327 113.063 4.85582C112.588 4.40128 112.35 3.85795 112.35 3.22585C112.35 2.60085 112.588 2.06463 113.063 1.61719C113.546 1.16264 114.125 0.935368 114.8 0.935368C115.475 0.935368 116.05 1.16264 116.526 1.61719C117.009 2.06463 117.25 2.60085 117.25 3.22585C117.25 3.85795 117.009 4.40128 116.526 4.85582C116.05 5.30327 115.475 5.52699 114.8 5.52699ZM125.232 14.5398V24H120.694V7.63636H125.019V10.5234H125.211C125.573 9.57173 126.18 8.81889 127.033 8.26491C127.885 7.70384 128.918 7.4233 130.133 7.4233C131.269 7.4233 132.26 7.67187 133.105 8.16903C133.95 8.66619 134.607 9.37642 135.076 10.2997C135.545 11.2159 135.779 12.3097 135.779 13.581V24H131.241V14.3906C131.248 13.3892 130.992 12.608 130.474 12.0469C129.955 11.4787 129.241 11.1946 128.332 11.1946C127.722 11.1946 127.182 11.326 126.713 11.5888C126.251 11.8516 125.889 12.2351 125.626 12.7393C125.371 13.2365 125.239 13.8366 125.232 14.5398ZM149.85 17.0327V7.63636H154.388V24H150.031V21.0277H149.86C149.491 21.9865 148.877 22.7571 148.017 23.3395C147.165 23.9219 146.124 24.2131 144.896 24.2131C143.802 24.2131 142.84 23.9645 142.009 23.4673C141.178 22.9702 140.528 22.2635 140.059 21.3473C139.597 20.4311 139.363 19.3338 139.356 18.0554V7.63636H143.894V17.2457C143.901 18.2116 144.161 18.9751 144.672 19.5362C145.183 20.0973 145.869 20.3778 146.728 20.3778C147.275 20.3778 147.786 20.2536 148.262 20.005C148.738 19.7493 149.122 19.3729 149.413 18.8757C149.711 18.3786 149.857 17.7642 149.85 17.0327ZM166.722 7.63636V11.0455H156.868V7.63636H166.722ZM159.105 3.71591H163.643V18.9716C163.643 19.3906 163.707 19.7173 163.835 19.9517C163.963 20.179 164.14 20.3388 164.368 20.4311C164.602 20.5234 164.872 20.5696 165.177 20.5696C165.39 20.5696 165.603 20.5518 165.816 20.5163C166.029 20.4737 166.193 20.4418 166.306 20.4205L167.02 23.7976C166.793 23.8686 166.473 23.9503 166.061 24.0426C165.65 24.142 165.149 24.2024 164.559 24.2237C163.466 24.2663 162.507 24.1207 161.683 23.7869C160.866 23.4531 160.23 22.9347 159.776 22.2315C159.321 21.5284 159.098 20.6406 159.105 19.5682V3.71591ZM176.96 24.3196C175.277 24.3196 173.828 23.9787 172.613 23.2969C171.406 22.608 170.475 21.6349 169.822 20.3778C169.169 19.1136 168.842 17.6186 168.842 15.8928C168.842 14.2095 169.169 12.7322 169.822 11.4609C170.475 10.1896 171.395 9.19886 172.581 8.48864C173.775 7.77841 175.174 7.4233 176.779 7.4233C177.858 7.4233 178.863 7.5973 179.794 7.94531C180.731 8.28622 181.548 8.80114 182.244 9.49006C182.947 10.179 183.494 11.0455 183.885 12.0895C184.275 13.1264 184.471 14.3409 184.471 15.733V16.9794H170.653V14.1669H180.199C180.199 13.5135 180.056 12.9347 179.772 12.4304C179.488 11.9261 179.094 11.532 178.59 11.2479C178.093 10.9567 177.514 10.8111 176.853 10.8111C176.164 10.8111 175.554 10.9709 175.021 11.2905C174.495 11.603 174.083 12.0256 173.785 12.5582C173.487 13.0838 173.334 13.6697 173.327 14.3161V16.9901C173.327 17.7997 173.476 18.4993 173.775 19.0888C174.08 19.6783 174.51 20.1328 175.064 20.4524C175.618 20.772 176.275 20.9318 177.034 20.9318C177.539 20.9318 178 20.8608 178.419 20.7188C178.838 20.5767 179.197 20.3636 179.495 20.0795C179.794 19.7955 180.021 19.4474 180.177 19.0355L184.375 19.3125C184.162 20.321 183.725 21.2017 183.064 21.9545C182.411 22.7003 181.566 23.2827 180.529 23.7017C179.499 24.1136 178.309 24.3196 176.96 24.3196Z" fill="#553214"/>
</svg>
