<svg width="155" height="66" viewBox="0 0 155 66" fill="none" xmlns="http://www.w3.org/2000/svg">
<g clip-path="url(#clip0_16_306)">
<mask id="mask0_16_306" style="mask-type:luminance" maskUnits="userSpaceOnUse" x="-84" y="-68" width="327" height="245">
<path d="M243 -68H-84V177H243V-68Z" fill="white"/>
</mask>
<g mask="url(#mask0_16_306)">
<path d="M30.0431 24.5583C27.6362 22.6148 24.3123 22.9792 20.7592 26.5018C20.6446 26.6232 20.4154 26.7447 20.3007 26.7447C19.2692 27.352 18.5815 27.595 17.3207 27.8379C17.0915 27.8379 17.0915 28.0808 17.3207 28.2023C18.8107 28.8096 19.4984 29.174 21.5615 29.417C21.9054 29.417 22.3638 29.5385 22.7077 29.6599C23.7392 30.0243 24.5415 30.7531 25.1146 31.4819C25.4585 30.6317 26.0316 29.9029 26.6046 29.2955L30.7308 24.9227C30.387 24.9227 30.2724 24.6797 30.0431 24.5583ZM25.1146 25.8944C25 26.0159 24.8854 26.1374 24.6562 26.1374C24.3123 26.2588 23.7392 26.1374 23.3954 26.0159V25.8944C23.51 25.6515 24.0831 25.4086 24.4269 25.2871C24.5415 25.2871 24.7708 25.2871 24.8854 25.2871C25.2292 25.2871 25.3439 25.6515 25.1146 25.8944Z" fill="black"/>
</g>
<mask id="mask1_16_306" style="mask-type:luminance" maskUnits="userSpaceOnUse" x="-84" y="-68" width="327" height="245">
<path d="M243 -68H-84V177H243V-68Z" fill="white"/>
</mask>
<g mask="url(#mask1_16_306)">
<path d="M42.9948 12.6544L26.8339 29.9028C23.8539 33.061 23.8539 38.0411 26.8339 41.1993L42.9948 24.0724C45.9748 20.9142 45.9748 15.8126 42.9948 12.6544Z" fill="black"/>
</g>
<mask id="mask2_16_306" style="mask-type:luminance" maskUnits="userSpaceOnUse" x="-84" y="-68" width="327" height="245">
<path d="M243 -68H-84V177H243V-68Z" fill="white"/>
</mask>
<g mask="url(#mask2_16_306)">
<path d="M44.9432 22.8577L32.2208 36.3406C29.5846 39.1344 29.5846 43.7501 32.2208 46.5439L32.7939 47.1512L45.5163 33.6683C48.1524 30.8746 48.1524 26.2588 45.5163 23.4651L44.9432 22.8577Z" fill="black"/>
</g>
<mask id="mask3_16_306" style="mask-type:luminance" maskUnits="userSpaceOnUse" x="-84" y="-68" width="327" height="245">
<path d="M243 -68H-84V177H243V-68Z" fill="white"/>
</mask>
<g mask="url(#mask3_16_306)">
<path d="M42.7655 37.5553L36.6908 43.9931C34.7424 46.058 34.7424 49.4591 36.6908 51.5241L38.4101 53.3461L44.4847 46.9083C46.4332 44.8433 46.4332 41.4423 44.4847 39.3773L42.7655 37.5553Z" fill="black"/>
</g>
<mask id="mask4_16_306" style="mask-type:luminance" maskUnits="userSpaceOnUse" x="-84" y="-68" width="327" height="245">
<path d="M243 -68H-84V177H243V-68Z" fill="white"/>
</mask>
<g mask="url(#mask4_16_306)">
<path d="M59.4995 24.4368C59.4995 23.5865 59.7287 22.9792 60.0726 22.6148C60.4164 22.2504 60.9895 22.0075 61.6772 22.0075C62.021 22.0075 62.3649 22.0075 62.7087 22.1289C63.0526 22.2504 63.3964 22.3719 63.7403 22.6148L65.4595 19.3352C64.1987 18.3634 62.7087 17.7561 60.9895 17.7561C59.8433 17.7561 58.8118 17.999 57.8949 18.4849C56.9779 18.9708 56.1756 19.6996 55.4879 20.6713C54.9148 21.6431 54.571 22.8577 54.571 24.3154V25.1656H51.8202V29.417H54.571V41.6852H59.6141V29.5385H63.8549V25.2871H59.6141V24.4368H59.4995Z" fill="black"/>
</g>
<mask id="mask5_16_306" style="mask-type:luminance" maskUnits="userSpaceOnUse" x="-84" y="-68" width="327" height="245">
<path d="M243 -68H-84V177H243V-68Z" fill="white"/>
</mask>
<g mask="url(#mask5_16_306)">
<path d="M66.835 19.4566V41.8066H71.7634V19.4566H66.835Z" fill="black"/>
</g>
<mask id="mask6_16_306" style="mask-type:luminance" maskUnits="userSpaceOnUse" x="-84" y="-68" width="327" height="245">
<path d="M243 -68H-84V177H243V-68Z" fill="white"/>
</mask>
<g mask="url(#mask6_16_306)">
<path d="M86.4343 25.287L84.3712 30.5101L82.5374 35.9762L80.9327 30.5101L79.0989 25.287H73.7119L79.7866 41.6852L77.6089 46.9083H82.8812L91.8213 25.287H86.4343Z" fill="black"/>
</g>
<mask id="mask7_16_306" style="mask-type:luminance" maskUnits="userSpaceOnUse" x="-84" y="-68" width="327" height="245">
<path d="M243 -68H-84V177H243V-68Z" fill="white"/>
</mask>
<g mask="url(#mask7_16_306)">
<path d="M101.449 24.4368C101.449 23.5865 101.678 22.9792 102.022 22.6148C102.366 22.2504 102.939 22.0075 103.627 22.0075C103.971 22.0075 104.314 22.0075 104.658 22.1289C105.002 22.2504 105.346 22.3719 105.69 22.6148L107.409 19.3352C106.148 18.3634 104.658 17.7561 102.939 17.7561C101.793 17.7561 100.761 17.999 99.8444 18.4849C98.9275 18.9708 98.1252 19.6996 97.4375 20.6713C96.8644 21.6431 96.5206 22.8577 96.5206 24.3154V25.1656H93.6552V29.417H96.4059V41.6852H101.449V29.5385H105.69V25.2871H101.449V24.4368Z" fill="black"/>
</g>
<mask id="mask8_16_306" style="mask-type:luminance" maskUnits="userSpaceOnUse" x="-84" y="-68" width="327" height="245">
<path d="M243 -68H-84V177H243V-68Z" fill="white"/>
</mask>
<g mask="url(#mask8_16_306)">
<path d="M112.911 19.5781C112.338 19.0922 111.65 18.7278 110.848 18.7278C110.045 18.7278 109.243 18.9707 108.784 19.5781C108.211 20.0639 107.982 20.7927 107.982 21.643C107.982 22.4933 108.211 23.1006 108.784 23.708C109.358 24.1938 110.045 24.5582 110.848 24.5582C111.765 24.5582 112.452 24.3153 112.911 23.708C113.484 23.2221 113.713 22.4933 113.713 21.643C113.713 20.9142 113.369 20.1854 112.911 19.5781Z" fill="black"/>
</g>
<mask id="mask9_16_306" style="mask-type:luminance" maskUnits="userSpaceOnUse" x="-84" y="-68" width="327" height="245">
<path d="M243 -68H-84V177H243V-68Z" fill="white"/>
</mask>
<g mask="url(#mask9_16_306)">
<path d="M113.254 25.287H108.326V41.8066H113.254V25.287Z" fill="black"/>
</g>
<mask id="mask10_16_306" style="mask-type:luminance" maskUnits="userSpaceOnUse" x="-84" y="-68" width="327" height="245">
<path d="M243 -68H-84V177H243V-68Z" fill="white"/>
</mask>
<g mask="url(#mask10_16_306)">
<path d="M140.075 26.7447C138.929 25.53 137.438 24.9227 135.375 24.9227C133.083 24.9227 131.249 25.7729 129.988 27.4735C129.53 26.6232 128.842 26.0159 128.04 25.53C127.238 25.0441 126.321 24.8012 125.289 24.8012C124.372 24.8012 123.57 25.0441 122.768 25.4085C121.965 25.7729 121.392 26.3803 120.819 27.1091L120.59 25.2871H116.234V41.8067H121.163V32.8181C121.163 31.8463 121.392 30.9961 121.965 30.3887C122.538 29.7814 123.111 29.417 124.028 29.417C124.831 29.417 125.404 29.6599 125.862 30.2672C126.321 30.8746 126.55 31.6034 126.55 32.5751V41.9281H131.478V32.8181C131.478 31.8463 131.708 30.9961 132.281 30.3887C132.739 29.7814 133.427 29.417 134.344 29.417C135.146 29.417 135.719 29.6599 136.178 30.2672C136.636 30.8746 136.865 31.6034 136.865 32.5751V41.9281H141.794V31.9678C141.794 29.6599 141.221 27.9594 140.075 26.7447Z" fill="black"/>
</g>
<mask id="mask11_16_306" style="mask-type:luminance" maskUnits="userSpaceOnUse" x="-84" y="-68" width="327" height="245">
<path d="M243 -68H-84V177H243V-68Z" fill="white"/>
</mask>
<g mask="url(#mask11_16_306)">
<path d="M98.0105 44.9648V44.8433C98.0105 44.9648 97.8959 45.0863 98.0105 44.9648C98.0105 45.0863 98.0105 45.0863 98.0105 45.0863C98.0105 45.2077 98.0105 45.3292 98.0105 45.4507V45.5721H99.2713V46.3009H98.0105V50.0664H97.3228V46.3009H96.5205V45.5721H97.3228V45.3292C97.3228 44.8433 97.4374 44.4789 97.7813 44.1145C98.0105 43.8716 98.469 43.6287 98.9275 43.6287C99.2713 43.6287 99.6151 43.6287 99.8444 43.8716V44.6004C99.6151 44.4789 99.2713 44.3575 98.9275 44.3575C98.3544 44.4789 98.1251 44.7219 98.0105 44.9648Z" fill="black"/>
</g>
<mask id="mask12_16_306" style="mask-type:luminance" maskUnits="userSpaceOnUse" x="-84" y="-68" width="327" height="245">
<path d="M243 -68H-84V177H243V-68Z" fill="white"/>
</mask>
<g mask="url(#mask12_16_306)">
<path d="M98.0105 44.8433V44.9643V45.0853C97.8959 45.0853 98.0105 44.9643 98.0105 44.8433Z" fill="black"/>
</g>
<mask id="mask13_16_306" style="mask-type:luminance" maskUnits="userSpaceOnUse" x="-84" y="-68" width="327" height="245">
<path d="M243 -68H-84V177H243V-68Z" fill="white"/>
</mask>
<g mask="url(#mask13_16_306)">
<path d="M98.0105 44.7219C98.0105 44.7219 98.0105 44.8433 97.8959 44.8433C98.0105 44.8433 98.0105 44.8433 98.0105 44.7219Z" fill="black"/>
</g>
<mask id="mask14_16_306" style="mask-type:luminance" maskUnits="userSpaceOnUse" x="-84" y="-68" width="327" height="245">
<path d="M243 -68H-84V177H243V-68Z" fill="white"/>
</mask>
<g mask="url(#mask14_16_306)">
<path d="M98.0105 44.7219C98.0105 44.7219 98.0105 44.8433 97.8959 44.8433C98.0105 44.8433 98.0105 44.8433 98.0105 44.7219Z" fill="black"/>
</g>
<mask id="mask15_16_306" style="mask-type:luminance" maskUnits="userSpaceOnUse" x="-84" y="-68" width="327" height="245">
<path d="M243 -68H-84V177H243V-68Z" fill="white"/>
</mask>
<g mask="url(#mask15_16_306)">
<path d="M98.0105 44.8433V44.9648C98.0105 45.0863 98.0105 45.2077 98.0105 45.4507V45.5721V45.3292C98.0105 45.2077 98.0105 45.0863 98.0105 44.9648C97.8959 45.0863 98.0105 44.9648 98.0105 44.8433Z" fill="black"/>
</g>
<mask id="mask16_16_306" style="mask-type:luminance" maskUnits="userSpaceOnUse" x="-84" y="-68" width="327" height="245">
<path d="M243 -68H-84V177H243V-68Z" fill="white"/>
</mask>
<g mask="url(#mask16_16_306)">
<path d="M104.773 45.8151L103.283 49.5806L102.824 48.2444L101.793 45.8151H101.449L103.168 49.945L102.251 52.0099H102.595L105.117 45.8151H104.773Z" fill="black"/>
</g>
<mask id="mask17_16_306" style="mask-type:luminance" maskUnits="userSpaceOnUse" x="-84" y="-68" width="327" height="245">
<path d="M243 -68H-84V177H243V-68Z" fill="white"/>
</mask>
<g mask="url(#mask17_16_306)">
<path d="M102.71 52.1314H102.022L102.939 49.945L101.22 45.6936H101.907L103.283 49.0947L104.658 45.6936H105.346L102.71 52.1314Z" fill="black"/>
</g>
<mask id="mask18_16_306" style="mask-type:luminance" maskUnits="userSpaceOnUse" x="-84" y="-68" width="327" height="245">
<path d="M243 -68H-84V177H243V-68Z" fill="white"/>
</mask>
<g mask="url(#mask18_16_306)">
<path d="M107.982 49.945H108.326V45.8151H107.982V49.945ZM108.441 44.3575C108.441 44.3575 108.326 44.236 108.211 44.236C108.097 44.236 108.097 44.236 107.982 44.3575C107.982 44.3575 107.868 44.479 107.868 44.6004C107.868 44.7219 107.868 44.7219 107.982 44.8434C107.982 44.8434 108.097 44.9648 108.211 44.9648C108.326 44.9648 108.326 44.9648 108.441 44.8434C108.555 44.8434 108.555 44.7219 108.555 44.6004C108.555 44.479 108.441 44.3575 108.441 44.3575Z" fill="black"/>
</g>
<mask id="mask19_16_306" style="mask-type:luminance" maskUnits="userSpaceOnUse" x="-84" y="-68" width="327" height="245">
<path d="M243 -68H-84V177H243V-68Z" fill="white"/>
</mask>
<g mask="url(#mask19_16_306)">
<path d="M108.555 50.1879H107.868V45.6936H108.555V50.1879ZM108.211 45.0862C108.097 45.0862 107.982 45.0862 107.868 44.9648C107.753 44.8433 107.753 44.7218 107.753 44.6004C107.753 44.4789 107.753 44.3574 107.868 44.236C108.097 43.993 108.326 43.993 108.555 44.236C108.67 44.3574 108.67 44.4789 108.67 44.6004C108.67 44.7218 108.67 44.8433 108.555 44.9648C108.441 44.9648 108.326 45.0862 108.211 45.0862ZM108.211 44.3574C108.097 44.4789 108.097 44.4789 108.097 44.4789V44.6004C108.097 44.6004 108.097 44.6004 108.211 44.6004H108.326C108.326 44.6004 108.326 44.6004 108.326 44.4789C108.326 44.3574 108.326 44.4789 108.211 44.3574Z" fill="black"/>
</g>
<mask id="mask20_16_306" style="mask-type:luminance" maskUnits="userSpaceOnUse" x="-84" y="-68" width="327" height="245">
<path d="M243 -68H-84V177H243V-68Z" fill="white"/>
</mask>
<g mask="url(#mask20_16_306)">
<path d="M112.681 46.3009C112.338 45.9365 111.994 45.8151 111.421 45.8151C111.077 45.8151 110.848 45.9365 110.504 46.058C110.274 46.1795 110.045 46.4224 109.816 46.6653V45.8151H109.701V49.945H110.045V47.6371C110.045 47.3941 110.16 47.0297 110.274 46.7868C110.389 46.5439 110.618 46.3009 110.848 46.1795C111.077 46.058 111.306 45.9365 111.65 45.9365C112.108 45.9365 112.452 46.058 112.681 46.3009C112.911 46.5439 113.025 46.9083 113.025 47.3941V49.702H113.369V47.2727C113.14 47.0297 113.025 46.5439 112.681 46.3009Z" fill="black"/>
</g>
<mask id="mask21_16_306" style="mask-type:luminance" maskUnits="userSpaceOnUse" x="-84" y="-68" width="327" height="245">
<path d="M243 -68H-84V177H243V-68Z" fill="white"/>
</mask>
<g mask="url(#mask21_16_306)">
<path d="M113.369 50.1879H112.681V47.6371C112.681 47.1512 112.567 46.9083 112.338 46.6654C112.108 46.4224 111.879 46.3009 111.421 46.3009C111.191 46.3009 110.962 46.4224 110.733 46.4224C110.504 46.5439 110.389 46.6653 110.274 46.9083C110.16 47.1512 110.16 47.3942 110.16 47.6371V50.0664H109.472V45.5721H110.16V46.1795C110.274 46.058 110.389 45.9365 110.504 45.9365C110.848 45.8151 111.077 45.6936 111.535 45.6936C112.108 45.6936 112.567 45.8151 112.911 46.1795C113.255 46.5439 113.369 47.0298 113.369 47.6371V50.1879ZM109.816 47.2727V47.6371C109.816 47.5156 109.816 47.2727 109.931 47.1512L109.816 47.2727Z" fill="black"/>
</g>
<mask id="mask22_16_306" style="mask-type:luminance" maskUnits="userSpaceOnUse" x="-84" y="-68" width="327" height="245">
<path d="M243 -68H-84V177H243V-68Z" fill="white"/>
</mask>
<g mask="url(#mask22_16_306)">
<path d="M122.195 46.3009C121.965 45.9365 121.507 45.8151 121.048 45.8151C120.705 45.8151 120.475 45.9365 120.131 46.058C119.902 46.3009 119.673 46.5439 119.558 46.7868C119.444 46.4224 119.329 46.1795 118.985 46.058C118.756 45.9365 118.412 45.8151 118.068 45.8151C117.839 45.8151 117.495 45.9365 117.266 46.058C117.037 46.1795 116.808 46.4224 116.693 46.6653V45.9365H116.578V50.0664H116.922V47.7586C116.922 47.5156 116.922 47.1512 117.151 47.0297C117.266 46.7868 117.381 46.6653 117.61 46.5439C117.839 46.4224 118.068 46.3009 118.298 46.3009C118.756 46.3009 118.985 46.4224 119.215 46.6653C119.444 46.9083 119.558 47.2727 119.558 47.7586V50.1879H119.902V47.88C119.902 47.6371 119.902 47.2727 120.017 47.1512C120.131 46.9083 120.246 46.7868 120.475 46.6653C120.705 46.5439 120.934 46.4224 121.163 46.4224C121.507 46.4224 121.851 46.5439 122.08 46.7868C122.309 47.0297 122.424 47.3941 122.424 47.88V50.3094H122.768V47.88C122.538 47.0297 122.424 46.5439 122.195 46.3009Z" fill="black"/>
</g>
<mask id="mask23_16_306" style="mask-type:luminance" maskUnits="userSpaceOnUse" x="-84" y="-68" width="327" height="245">
<path d="M243 -68H-84V177H243V-68Z" fill="white"/>
</mask>
<g mask="url(#mask23_16_306)">
<path d="M122.768 50.1879H122.08V47.6371C122.08 47.1512 121.965 46.9083 121.851 46.6653C121.621 46.4224 121.392 46.3009 121.048 46.3009C120.819 46.3009 120.59 46.3009 120.475 46.4224C120.246 46.5439 120.131 46.6653 120.017 46.9083C119.902 47.1512 119.902 47.3941 119.902 47.6371V50.1879H119.215V47.6371C119.215 47.2727 119.1 46.9083 118.985 46.6653C118.871 46.4224 118.527 46.3009 118.183 46.3009C117.954 46.3009 117.725 46.3009 117.61 46.4224C117.381 46.5439 117.266 46.6653 117.151 46.9083C117.037 47.1512 117.037 47.3941 117.037 47.6371V50.1879H116.349V45.6936H117.037V46.1795C117.151 46.058 117.266 45.9365 117.381 45.9365C117.61 45.8151 117.954 45.6936 118.183 45.6936C118.527 45.6936 118.871 45.8151 119.215 45.9365C119.444 46.058 119.558 46.3009 119.673 46.4224C119.788 46.1795 120.017 46.058 120.131 45.9365C120.475 45.6936 120.705 45.6936 121.048 45.6936C121.507 45.6936 121.965 45.9365 122.309 46.1795C122.653 46.5439 122.768 47.0297 122.768 47.6371V50.1879ZM116.693 47.2727V47.5156C116.693 47.3941 116.693 47.2727 116.693 47.2727Z" fill="black"/>
</g>
<mask id="mask24_16_306" style="mask-type:luminance" maskUnits="userSpaceOnUse" x="-84" y="-68" width="327" height="245">
<path d="M243 -68H-84V177H243V-68Z" fill="white"/>
</mask>
<g mask="url(#mask24_16_306)">
<path d="M123.799 49.945H124.143V45.8151H123.799V49.945ZM124.258 44.3575C124.258 44.3575 124.143 44.236 124.028 44.236C123.914 44.236 123.914 44.236 123.799 44.3575C123.799 44.3575 123.685 44.479 123.685 44.6004C123.685 44.7219 123.685 44.7219 123.799 44.8434C123.799 44.8434 123.914 44.9648 124.028 44.9648C124.143 44.9648 124.143 44.9648 124.258 44.8434C124.372 44.8434 124.372 44.7219 124.372 44.6004C124.258 44.479 124.258 44.3575 124.258 44.3575Z" fill="black"/>
</g>
<mask id="mask25_16_306" style="mask-type:luminance" maskUnits="userSpaceOnUse" x="-84" y="-68" width="327" height="245">
<path d="M243 -68H-84V177H243V-68Z" fill="white"/>
</mask>
<g mask="url(#mask25_16_306)">
<path d="M124.372 50.1879H123.685V45.6936H124.372V50.1879ZM124.028 45.0862C123.914 45.0862 123.799 45.0862 123.685 44.9648C123.57 44.8433 123.57 44.7218 123.57 44.6004C123.57 44.4789 123.57 44.3574 123.685 44.236C123.914 43.993 124.143 43.993 124.372 44.236C124.487 44.3574 124.487 44.4789 124.487 44.6004C124.487 44.7218 124.487 44.8433 124.372 44.9648C124.258 44.9648 124.143 45.0862 124.028 45.0862ZM124.028 44.3574C123.914 44.4789 123.914 44.3574 124.028 44.3574C123.914 44.4789 123.914 44.4789 123.914 44.4789V44.6004C123.914 44.6004 123.914 44.6004 124.028 44.6004H124.143C124.143 44.6004 124.143 44.6004 124.143 44.4789C124.143 44.3574 124.143 44.4789 124.028 44.3574Z" fill="black"/>
</g>
<mask id="mask26_16_306" style="mask-type:luminance" maskUnits="userSpaceOnUse" x="-84" y="-68" width="327" height="245">
<path d="M243 -68H-84V177H243V-68Z" fill="white"/>
</mask>
<g mask="url(#mask26_16_306)">
<path d="M128.498 46.3009C128.155 45.9365 127.811 45.8151 127.238 45.8151C126.894 45.8151 126.665 45.9365 126.321 46.058C126.092 46.1795 125.862 46.4224 125.748 46.6653V45.8151H125.404V49.945H125.748V47.6371C125.748 47.3941 125.862 47.0297 125.977 46.7868C126.092 46.5439 126.321 46.3009 126.55 46.1795C126.779 46.058 127.008 45.9365 127.352 45.9365C127.811 45.9365 128.155 46.058 128.384 46.3009C128.613 46.5439 128.728 46.9083 128.728 47.3941V49.702H129.072V47.2727C128.957 47.0297 128.842 46.5439 128.498 46.3009Z" fill="black"/>
</g>
<mask id="mask27_16_306" style="mask-type:luminance" maskUnits="userSpaceOnUse" x="-84" y="-68" width="327" height="245">
<path d="M243 -68H-84V177H243V-68Z" fill="white"/>
</mask>
<g mask="url(#mask27_16_306)">
<path d="M129.186 50.1879H128.498V47.6371C128.498 47.1512 128.384 46.9083 128.155 46.6654C127.925 46.4224 127.696 46.3009 127.238 46.3009C127.008 46.3009 126.779 46.4224 126.55 46.4224C126.321 46.5439 126.206 46.6653 126.091 46.9083C125.977 47.1512 125.977 47.3942 125.977 47.6371V50.0664H125.289V45.5721H125.977V46.1795C126.091 46.058 126.206 45.9365 126.321 45.9365C126.665 45.8151 127.008 45.6936 127.352 45.6936C127.925 45.6936 128.384 45.8151 128.728 46.1795C129.072 46.5439 129.186 47.0298 129.186 47.6371V50.1879ZM125.633 47.2727V47.6371C125.633 47.5156 125.633 47.2727 125.748 47.1512L125.633 47.2727Z" fill="black"/>
</g>
<mask id="mask28_16_306" style="mask-type:luminance" maskUnits="userSpaceOnUse" x="-84" y="-68" width="327" height="245">
<path d="M243 -68H-84V177H243V-68Z" fill="white"/>
</mask>
<g mask="url(#mask28_16_306)">
<path d="M133.312 45.8151V48.1229C133.312 48.3659 133.198 48.7303 133.083 48.9732C132.968 49.2162 132.739 49.3376 132.51 49.5806C132.281 49.702 132.051 49.8235 131.708 49.8235C131.249 49.8235 131.02 49.702 130.791 49.4591C130.561 49.2162 130.447 48.8518 130.447 48.3659V45.9365H130.103V48.3659C130.103 48.9732 130.218 49.3376 130.561 49.702C130.905 50.0664 131.249 50.1879 131.708 50.1879C132.051 50.1879 132.281 50.0664 132.625 49.945C132.854 49.8235 133.083 49.5806 133.198 49.3376V50.1879H133.542V46.058H133.312V45.8151Z" fill="black"/>
</g>
<mask id="mask29_16_306" style="mask-type:luminance" maskUnits="userSpaceOnUse" x="-84" y="-68" width="327" height="245">
<path d="M243 -68H-84V177H243V-68Z" fill="white"/>
</mask>
<g mask="url(#mask29_16_306)">
<path d="M131.822 50.1879C131.249 50.1879 130.791 50.0664 130.561 49.702C130.218 49.3376 130.103 48.8518 130.103 48.2444V45.6936H130.791V48.2444C130.791 48.6088 130.905 48.9732 131.135 49.2162C131.364 49.4591 131.593 49.5806 131.937 49.5806C132.166 49.5806 132.395 49.5806 132.625 49.3376C132.854 49.2162 132.968 49.0947 133.083 48.8518C133.198 48.6088 133.198 48.3659 133.198 48.123V45.6936H133.885V50.1879H133.198V49.702C133.083 49.8235 132.968 49.945 132.854 49.945C132.51 50.0664 132.166 50.1879 131.822 50.1879ZM130.332 48.6088C130.332 48.9732 130.447 49.2162 130.676 49.4591C130.791 49.5806 130.791 49.5806 130.905 49.5806C130.791 49.5806 130.791 49.4591 130.676 49.4591C130.561 49.2162 130.447 48.9732 130.332 48.6088ZM133.427 48.2444C133.427 48.3659 133.427 48.4874 133.312 48.7303L133.427 48.6088V48.2444Z" fill="black"/>
</g>
<mask id="mask30_16_306" style="mask-type:luminance" maskUnits="userSpaceOnUse" x="-84" y="-68" width="327" height="245">
<path d="M243 -68H-84V177H243V-68Z" fill="white"/>
</mask>
<g mask="url(#mask30_16_306)">
<path d="M137.095 49.5806C136.98 49.5806 136.865 49.702 136.751 49.702C136.636 49.702 136.522 49.702 136.407 49.702C136.063 49.702 135.949 49.5806 135.834 49.4591C135.719 49.3376 135.719 49.0947 135.719 48.7303V46.1795H137.095V45.8151H135.719V44.6004H135.375V45.8151H134.573V46.1795H135.375V48.7303C135.375 49.2162 135.49 49.4591 135.605 49.702C135.719 49.945 136.063 50.0664 136.407 50.0664C136.636 50.0664 136.865 49.945 137.209 49.8235L137.095 49.5806Z" fill="black"/>
</g>
<mask id="mask31_16_306" style="mask-type:luminance" maskUnits="userSpaceOnUse" x="-84" y="-68" width="327" height="245">
<path d="M243 -68H-84V177H243V-68Z" fill="white"/>
</mask>
<g mask="url(#mask31_16_306)">
<path d="M136.522 50.1879C136.063 50.1879 135.719 50.0665 135.605 49.8235C135.375 49.5806 135.375 49.2162 135.375 48.7303V46.301H134.573V45.5722H135.375V44.3575H136.063V45.5722H137.439V46.301H136.063V48.7303C136.063 49.0947 136.178 49.3376 136.178 49.3376C136.292 49.4591 136.407 49.4591 136.636 49.4591C136.751 49.4591 136.751 49.4591 136.865 49.4591C136.98 49.4591 137.095 49.3376 137.209 49.3376L137.324 49.2162L137.553 49.8235L137.439 49.945C136.98 50.1879 136.751 50.1879 136.522 50.1879ZM135.719 49.5806C135.719 49.5806 135.719 49.5806 135.834 49.7021L135.719 49.5806Z" fill="black"/>
</g>
<mask id="mask32_16_306" style="mask-type:luminance" maskUnits="userSpaceOnUse" x="-84" y="-68" width="327" height="245">
<path d="M243 -68H-84V177H243V-68Z" fill="white"/>
</mask>
<g mask="url(#mask32_16_306)">
<path d="M141.679 47.7586C141.679 47.3942 141.565 47.0297 141.45 46.6653C141.335 46.3009 141.106 46.058 140.762 45.9365C140.419 45.8151 140.075 45.6936 139.731 45.6936C139.387 45.6936 139.043 45.8151 138.699 45.9365C138.355 46.1795 138.126 46.4224 138.012 46.6653C137.897 47.0297 137.782 47.3942 137.782 47.7586C137.782 48.123 137.897 48.4874 138.012 48.8518C138.241 49.2162 138.47 49.4591 138.699 49.5806C139.043 49.8235 139.387 49.8235 139.731 49.8235C140.075 49.8235 140.419 49.702 140.648 49.5806C140.992 49.4591 141.221 49.2162 141.335 48.9732L141.106 48.7303C140.992 48.9732 140.762 49.0947 140.533 49.2162C140.304 49.3376 139.96 49.4591 139.731 49.4591C139.272 49.4591 138.929 49.3376 138.585 48.9732C138.241 48.6088 138.126 48.2444 138.126 47.7586H141.679C141.679 47.88 141.679 48.0015 141.679 47.7586ZM138.012 47.7586C138.012 47.2727 138.241 46.9083 138.47 46.5439C138.814 46.3009 139.158 46.058 139.616 46.058C139.96 46.058 140.189 46.1795 140.419 46.3009C140.648 46.4224 140.877 46.6653 140.992 46.9083C141.106 47.1512 141.221 47.3942 141.221 47.7586H138.012Z" fill="black"/>
</g>
<mask id="mask33_16_306" style="mask-type:luminance" maskUnits="userSpaceOnUse" x="-84" y="-68" width="327" height="245">
<path d="M243 -68H-84V177H243V-68Z" fill="white"/>
</mask>
<g mask="url(#mask33_16_306)">
<path d="M139.731 50.1879C139.272 50.1879 138.928 50.0664 138.585 49.8235C138.241 49.5806 138.012 49.3376 137.782 48.9732C137.553 48.6088 137.553 48.2444 137.553 47.7586C137.553 47.2727 137.668 46.9083 137.782 46.5439C138.012 46.1795 138.241 45.9366 138.585 45.6936C138.928 45.4507 139.272 45.4507 139.731 45.4507C140.189 45.4507 140.533 45.5721 140.877 45.6936C141.221 45.8151 141.45 46.1795 141.679 46.4224C141.909 46.7868 141.909 47.1512 141.909 47.5156C141.909 47.6371 141.909 47.7586 141.909 47.7586V47.88H138.355C138.355 48.2444 138.585 48.6088 138.814 48.8518C139.043 49.0947 139.387 49.2162 139.845 49.2162C140.075 49.2162 140.419 49.2162 140.648 49.0947C140.877 48.9732 141.106 48.8518 141.221 48.6088L141.335 48.4874L141.794 48.9732L141.679 49.0947C141.45 49.3376 141.221 49.5806 140.877 49.702C140.418 50.1879 140.075 50.1879 139.731 50.1879ZM138.241 47.5156H141.106C141.106 47.2727 140.992 47.1512 140.877 46.9083C140.762 46.6654 140.648 46.5439 140.419 46.4224C140.189 46.301 139.96 46.301 139.616 46.301C139.158 46.301 138.928 46.4224 138.585 46.6654C138.47 46.9083 138.355 47.1512 138.241 47.5156Z" fill="black"/>
</g>
<mask id="mask34_16_306" style="mask-type:luminance" maskUnits="userSpaceOnUse" x="-84" y="-68" width="327" height="245">
<path d="M243 -68H-84V177H243V-68Z" fill="white"/>
</mask>
<g mask="url(#mask34_16_306)">
<path d="M100.761 44.8433H100.074V50.1879H100.761V44.8433Z" fill="black"/>
</g>
</g>
<defs>
<clipPath id="clip0_16_306">
<rect width="327" height="245" fill="white" transform="translate(-84 -68)"/>
</clipPath>
</defs>
</svg>
