<svg width="109" height="118" viewBox="0 0 109 118" fill="none" xmlns="http://www.w3.org/2000/svg">
<path d="M8.22346 109.573V108.243H0.596124L0.596124 109.573H8.22346ZM5.12055 112.821L5.12055 104.72H3.70667L3.70667 112.821H5.12055Z" fill="#FF7152"/>
<path d="M8.22346 84.672V83.3422H0.596124L0.596124 84.672H8.22346ZM5.12055 87.9201L5.12055 79.8189H3.70667L3.70667 87.9201H5.12055Z" fill="#E5E5E5"/>
<path d="M8.22346 59.7711V58.4413H0.596124L0.596124 59.7711H8.22346ZM5.12055 63.0192L5.12055 54.9181H3.70667L3.70667 63.0192H5.12055Z" fill="#E5E5E5"/>
<path d="M33.1245 109.573V108.243H25.4971V109.573H33.1245ZM30.0216 112.821V104.72H28.6077V112.821H30.0216Z" fill="#E5E5E5"/>
<path d="M33.1245 84.672V83.3422H25.4971V84.672H33.1245ZM30.0216 87.9201V79.8189H28.6077V87.9201H30.0216Z" fill="#E5E5E5"/>
<path d="M33.1245 59.7711V58.4413H25.4971V59.7711H33.1245ZM30.0216 63.0192V54.9181H28.6077V63.0192H30.0216Z" fill="#E5E5E5"/>
<path d="M33.1245 34.87V33.5402H25.4971V34.87H33.1245ZM30.0216 38.1181V30.0169H28.6077V38.1181H30.0216Z" fill="#E5E5E5"/>
<path d="M58.0256 109.573V108.243H50.3982V109.573H58.0256ZM54.9227 112.821V104.72H53.5088V112.821H54.9227Z" fill="#E5E5E5"/>
<path d="M58.0256 84.672V83.3422H50.3982V84.672H58.0256ZM54.9227 87.9201V79.8189H53.5088V87.9201H54.9227Z" fill="#E5E5E5"/>
<path d="M58.0256 59.7711V58.4413H50.3982V59.7711H58.0256ZM54.9227 63.0192V54.9181H53.5088V63.0192H54.9227Z" fill="#6246E5"/>
<path d="M58.0256 34.87V33.5402H50.3982V34.87H58.0256ZM54.9227 38.1181V30.0169H53.5088V38.1181H54.9227Z" fill="#E5E5E5"/>
<path d="M58.0256 9.96889V8.63907H50.3982V9.96889H58.0256ZM54.9227 13.217V5.11582H53.5088V13.217H54.9227Z" fill="#E5E5E5"/>
<path d="M82.9266 109.573V108.243H75.2992V109.573H82.9266ZM79.8237 112.821V104.72H78.4098V112.821H79.8237Z" fill="#E5E5E5"/>
<path d="M82.9266 84.672V83.3422H75.2992V84.672H82.9266ZM79.8237 87.9201V79.8189H78.4098V87.9201H79.8237Z" fill="#E5E5E5"/>
<path d="M82.9266 59.7711V58.4413H75.2992V59.7711H82.9266ZM79.8237 63.0192V54.9181H78.4098V63.0192H79.8237Z" fill="#E5E5E5"/>
<path d="M82.9266 34.87V33.5402H75.2992V34.87H82.9266ZM79.8237 38.1181V30.0169H78.4098V38.1181H79.8237Z" fill="#DF6951"/>
<path d="M82.9266 9.96889V8.63907H75.2992V9.96889H82.9266ZM79.8237 13.217V5.11582H78.4098V13.217H79.8237Z" fill="#E5E5E5"/>
<path d="M107.828 109.573V108.243H100.2V109.573H107.828ZM104.725 112.821V104.72H103.311V112.821H104.725Z" fill="#E5E5E5"/>
<path d="M107.828 84.672V83.3422H100.2V84.672H107.828ZM104.725 87.9201V79.8189H103.311V87.9201H104.725Z" fill="#E5E5E5"/>
<path d="M107.828 59.7711V58.4413H100.2V59.7711H107.828ZM104.725 63.0192V54.9181H103.311V63.0192H104.725Z" fill="#DF6951"/>
<path d="M107.828 34.87V33.5402H100.2V34.87H107.828ZM104.725 38.1181V30.0169H103.311V38.1181H104.725Z" fill="#E5E5E5"/>
<path d="M107.828 9.96889V8.63907H100.2V9.96889H107.828ZM104.725 13.217V5.11582H103.311V13.217H104.725Z" fill="#E5E5E5"/>
</svg>
