<svg width="119" height="109" viewBox="0 0 119 109" fill="none" xmlns="http://www.w3.org/2000/svg">
<path d="M8.54051 8.24494L9.87033 8.24494L9.87033 0.617608L8.54051 0.617608L8.54051 8.24494ZM5.2924 5.14204L13.3936 5.14204L13.3936 3.72815L5.2924 3.72815L5.2924 5.14204Z" fill="#FF7152"/>
<path d="M33.4416 8.24494L34.7714 8.24494L34.7714 0.617608L33.4416 0.617608L33.4416 8.24494ZM30.1935 5.14204L38.2946 5.14204L38.2946 3.72815L30.1935 3.72815L30.1935 5.14204Z" fill="#E5E5E5"/>
<path d="M58.3426 8.24494L59.6724 8.24494L59.6724 0.617608L58.3426 0.617608L58.3426 8.24494ZM55.0945 5.14204L63.1956 5.14204L63.1956 3.72815L55.0945 3.72815L55.0945 5.14204Z" fill="#E5E5E5"/>
<path d="M8.54051 33.1461L9.87033 33.1461L9.87033 25.5187L8.54051 25.5187L8.54051 33.1461ZM5.2924 30.0432L13.3936 30.0432L13.3936 28.6293L5.2924 28.6293L5.2924 30.0432Z" fill="#E5E5E5"/>
<path d="M33.4416 33.1461L34.7714 33.1461L34.7714 25.5187L33.4416 25.5187L33.4416 33.1461ZM30.1935 30.0432L38.2946 30.0432L38.2946 28.6293L30.1935 28.6293L30.1935 30.0432Z" fill="#E5E5E5"/>
<path d="M58.3426 33.1461L59.6724 33.1461L59.6724 25.5187L58.3426 25.5187L58.3426 33.1461ZM55.0945 30.0432L63.1956 30.0432L63.1956 28.6293L55.0945 28.6293L55.0945 30.0432Z" fill="#E5E5E5"/>
<path d="M83.2436 33.1461L84.5735 33.1461L84.5735 25.5187L83.2436 25.5187L83.2436 33.1461ZM79.9955 30.0432L88.0967 30.0432L88.0967 28.6293L79.9955 28.6293L79.9955 30.0432Z" fill="#E5E5E5"/>
<path d="M8.54051 58.0469L9.87033 58.0469L9.87033 50.4196L8.54051 50.4196L8.54051 58.0469ZM5.2924 54.944L13.3936 54.944L13.3936 53.5302L5.2924 53.5302L5.2924 54.944Z" fill="#E5E5E5"/>
<path d="M33.4416 58.0469L34.7714 58.0469L34.7714 50.4196L33.4416 50.4196L33.4416 58.0469ZM30.1935 54.944L38.2946 54.944L38.2946 53.5302L30.1935 53.5302L30.1935 54.944Z" fill="#E5E5E5"/>
<path d="M58.3426 58.0469L59.6724 58.0469L59.6724 50.4196L58.3426 50.4196L58.3426 58.0469ZM55.0945 54.944L63.1956 54.944L63.1956 53.5302L55.0945 53.5302L55.0945 54.944Z" fill="#6246E5"/>
<path d="M83.2436 58.0469L84.5735 58.0469L84.5735 50.4196L83.2436 50.4196L83.2436 58.0469ZM79.9955 54.944L88.0967 54.944L88.0967 53.5302L79.9955 53.5302L79.9955 54.944Z" fill="#E5E5E5"/>
<path d="M108.145 58.0469L109.475 58.0469L109.475 50.4196L108.145 50.4196L108.145 58.0469ZM104.897 54.944L112.998 54.944L112.998 53.5302L104.897 53.5302L104.897 54.944Z" fill="#E5E5E5"/>
<path d="M8.54051 82.9481L9.87033 82.9481L9.87033 75.3207L8.54051 75.3207L8.54051 82.9481ZM5.2924 79.8452L13.3936 79.8452L13.3936 78.4313L5.2924 78.4313L5.2924 79.8452Z" fill="#E5E5E5"/>
<path d="M33.4416 82.9481L34.7714 82.9481L34.7714 75.3207L33.4416 75.3207L33.4416 82.9481ZM30.1935 79.8452L38.2946 79.8452L38.2946 78.4313L30.1935 78.4313L30.1935 79.8452Z" fill="#E5E5E5"/>
<path d="M58.3426 82.9481L59.6724 82.9481L59.6724 75.3207L58.3426 75.3207L58.3426 82.9481ZM55.0945 79.8452L63.1956 79.8452L63.1956 78.4313L55.0945 78.4313L55.0945 79.8452Z" fill="#E5E5E5"/>
<path d="M83.2436 82.9481L84.5735 82.9481L84.5735 75.3207L83.2436 75.3207L83.2436 82.9481ZM79.9955 79.8452L88.0967 79.8452L88.0967 78.4313L79.9955 78.4313L79.9955 79.8452Z" fill="#DF6951"/>
<path d="M108.145 82.9481L109.475 82.9481L109.475 75.3207L108.145 75.3207L108.145 82.9481ZM104.897 79.8452L112.998 79.8452L112.998 78.4313L104.897 78.4313L104.897 79.8452Z" fill="#E5E5E5"/>
<path d="M8.54051 107.849L9.87033 107.849L9.87033 100.222L8.54051 100.222L8.54051 107.849ZM5.2924 104.746L13.3936 104.746L13.3936 103.332L5.2924 103.332L5.2924 104.746Z" fill="#E5E5E5"/>
<path d="M33.4416 107.849L34.7714 107.849L34.7714 100.222L33.4416 100.222L33.4416 107.849ZM30.1935 104.746L38.2946 104.746L38.2946 103.332L30.1935 103.332L30.1935 104.746Z" fill="#E5E5E5"/>
<path d="M58.3426 107.849L59.6724 107.849L59.6724 100.222L58.3426 100.222L58.3426 107.849ZM55.0945 104.746L63.1956 104.746L63.1956 103.332L55.0945 103.332L55.0945 104.746Z" fill="#DF6951"/>
<path d="M83.2436 107.849L84.5735 107.849L84.5735 100.222L83.2436 100.222L83.2436 107.849ZM79.9955 104.746L88.0967 104.746L88.0967 103.332L79.9955 103.332L79.9955 104.746Z" fill="#E5E5E5"/>
<path d="M108.145 107.849L109.475 107.849L109.475 100.222L108.145 100.222L108.145 107.849ZM104.897 104.746L112.998 104.746L112.998 103.332L104.897 103.332L104.897 104.746Z" fill="#E5E5E5"/>
</svg>
