<svg width="109" height="119" viewBox="0 0 109 119" fill="none" xmlns="http://www.w3.org/2000/svg">
<path d="M8.29743 109.982V108.652H0.670099L0.670099 109.982H8.29743ZM5.19453 113.23L5.19453 105.129H3.78064L3.78064 113.23H5.19453Z" fill="#FF7152"/>
<path d="M8.29743 85.0811V83.7513H0.670099L0.670099 85.0811H8.29743ZM5.19453 88.3292L5.19453 80.228H3.78064L3.78064 88.3292H5.19453Z" fill="#E5E5E5"/>
<path d="M8.29743 60.1799V58.8501H0.670099L0.670099 60.1799H8.29743ZM5.19453 63.4281L5.19453 55.3269H3.78064L3.78064 63.4281H5.19453Z" fill="#E5E5E5"/>
<path d="M33.1985 109.982V108.652H25.5712V109.982H33.1985ZM30.0956 113.23V105.129H28.6817V113.23H30.0956Z" fill="#E5E5E5"/>
<path d="M33.1985 85.0811V83.7513H25.5712V85.0811H33.1985ZM30.0956 88.3292V80.228H28.6817V88.3292H30.0956Z" fill="#E5E5E5"/>
<path d="M33.1985 60.1799V58.8501H25.5712V60.1799H33.1985ZM30.0956 63.4281V55.3269H28.6817V63.4281H30.0956Z" fill="#E5E5E5"/>
<path d="M33.1985 35.2789V33.9491H25.5712V35.2789H33.1985ZM30.0956 38.5271V30.4259H28.6817V38.5271H30.0956Z" fill="#E5E5E5"/>
<path d="M58.0995 109.982V108.652H50.4722V109.982H58.0995ZM54.9966 113.23V105.129H53.5827V113.23H54.9966Z" fill="#E5E5E5"/>
<path d="M58.0995 85.0811V83.7513H50.4722V85.0811H58.0995ZM54.9966 88.3292V80.228H53.5827V88.3292H54.9966Z" fill="#E5E5E5"/>
<path d="M58.0995 60.1799V58.8501H50.4722V60.1799H58.0995ZM54.9966 63.4281V55.3269H53.5827V63.4281H54.9966Z" fill="#6246E5"/>
<path d="M58.0995 35.2789V33.9491H50.4722V35.2789H58.0995ZM54.9966 38.5271V30.4259H53.5827V38.5271H54.9966Z" fill="#E5E5E5"/>
<path d="M58.0995 10.3779V9.04813H50.4722V10.3779H58.0995ZM54.9966 13.6261V5.52488H53.5827V13.6261H54.9966Z" fill="#E5E5E5"/>
<path d="M83.0006 109.982V108.652H75.3732V109.982H83.0006ZM79.8977 113.23V105.129H78.4838V113.23H79.8977Z" fill="#E5E5E5"/>
<path d="M83.0006 85.0811V83.7513H75.3732V85.0811H83.0006ZM79.8977 88.3292V80.228H78.4838V88.3292H79.8977Z" fill="#E5E5E5"/>
<path d="M83.0006 60.1799V58.8501H75.3732V60.1799H83.0006ZM79.8977 63.4281V55.3269H78.4838V63.4281H79.8977Z" fill="#E5E5E5"/>
<path d="M83.0006 35.2789V33.9491H75.3732V35.2789H83.0006ZM79.8977 38.5271V30.4259H78.4838V38.5271H79.8977Z" fill="#DF6951"/>
<path d="M83.0006 10.3779V9.04813H75.3732V10.3779H83.0006ZM79.8977 13.6261V5.52488H78.4838V13.6261H79.8977Z" fill="#E5E5E5"/>
<path d="M107.902 109.982V108.652H100.274V109.982H107.902ZM104.799 113.23V105.129H103.385V113.23H104.799Z" fill="#E5E5E5"/>
<path d="M107.902 85.0811V83.7513H100.274V85.0811H107.902ZM104.799 88.3292V80.228H103.385V88.3292H104.799Z" fill="#E5E5E5"/>
<path d="M107.902 60.1799V58.8501H100.274V60.1799H107.902ZM104.799 63.4281V55.3269H103.385V63.4281H104.799Z" fill="#DF6951"/>
<path d="M107.902 35.2789V33.9491H100.274V35.2789H107.902ZM104.799 38.5271V30.4259H103.385V38.5271H104.799Z" fill="#E5E5E5"/>
<path d="M107.902 10.3779V9.04813H100.274V10.3779H107.902ZM104.799 13.6261V5.52488H103.385V13.6261H104.799Z" fill="#E5E5E5"/>
</svg>
