<svg width="12" height="12" viewBox="0 0 12 12" fill="none" xmlns="http://www.w3.org/2000/svg">
<path d="M0.5877 11.0398H1.72603V4.77894C1.72603 4.67417 1.81098 4.58922 1.91576 4.58922H4.57187V0.225611C4.57187 0.120837 4.65681 0.0358887 4.76159 0.0358887H9.69437C9.79914 0.0358887 9.88409 0.120837 9.88409 0.225611V11.0398H11.5916C11.6964 11.0398 11.7813 11.1247 11.7813 11.2295C11.7813 11.3343 11.6964 11.4192 11.5916 11.4192H0.5877C0.482925 11.4192 0.397978 11.3343 0.397978 11.2295C0.397978 11.1247 0.482925 11.0398 0.5877 11.0398ZM7.79714 11.0398H8.55603V9.33228C8.55603 9.2275 8.47109 9.14256 8.36631 9.14256H7.98687C7.88209 9.14256 7.79714 9.2275 7.79714 9.33228V11.0398ZM7.03826 4.77894V11.0398H7.4177V9.33228C7.4177 9.01793 7.67252 8.76311 7.98687 8.76311H8.36631C8.68066 8.76311 8.93548 9.01793 8.93548 9.33228V11.0398H9.50464V0.415333H4.95131V4.58922H6.84853C6.95331 4.58922 7.03826 4.67417 7.03826 4.77894ZM2.10548 11.0398H6.65881V4.96867H2.10548V11.0398Z" fill="#84829A"/>
<path d="M5.71021 2.69287H6.84855C6.95332 2.69287 7.03827 2.77782 7.03827 2.88259V4.02093C7.03827 4.1257 6.95332 4.21065 6.84855 4.21065H5.71021C5.60544 4.21065 5.52049 4.1257 5.52049 4.02093V2.88259C5.52049 2.77782 5.60544 2.69287 5.71021 2.69287ZM5.89994 3.8312H6.65882V3.07232H5.89994V3.8312Z" fill="#84829A"/>
<path d="M5.71021 0.79541H6.84855C6.95332 0.79541 7.03827 0.880358 7.03827 0.985132V2.12347C7.03827 2.22824 6.95332 2.31319 6.84855 2.31319H5.71021C5.60544 2.31319 5.52049 2.22824 5.52049 2.12347V0.985132C5.52049 0.880358 5.60544 0.79541 5.71021 0.79541ZM5.89994 1.93374H6.65882V1.17485H5.89994V1.93374Z" fill="#84829A"/>
<path d="M7.60743 2.69287H8.74576C8.85054 2.69287 8.93549 2.77782 8.93549 2.88259V4.02093C8.93549 4.1257 8.85054 4.21065 8.74576 4.21065H7.60743C7.50266 4.21065 7.41771 4.1257 7.41771 4.02093V2.88259C7.41771 2.77782 7.50266 2.69287 7.60743 2.69287ZM7.79715 3.8312H8.55604V3.07232H7.79715V3.8312Z" fill="#84829A"/>
<path d="M7.60743 0.79541H8.74576C8.85054 0.79541 8.93549 0.880358 8.93549 0.985132V2.12347C8.93549 2.22824 8.85054 2.31319 8.74576 2.31319H7.60743C7.50266 2.31319 7.41771 2.22824 7.41771 2.12347V0.985132C7.41771 0.880358 7.50266 0.79541 7.60743 0.79541ZM7.79715 1.93374H8.55604V1.17485H7.79715V1.93374Z" fill="#84829A"/>
<path d="M7.60743 4.58984H8.74576C8.85054 4.58984 8.93549 4.67479 8.93549 4.77957V5.9179C8.93549 6.02267 8.85054 6.10762 8.74576 6.10762H7.60743C7.50266 6.10762 7.41771 6.02267 7.41771 5.9179V4.77957C7.41771 4.67479 7.50266 4.58984 7.60743 4.58984ZM7.79715 5.72818H8.55604V4.96929H7.79715V5.72818Z" fill="#84829A"/>
<path d="M7.60743 6.4873H8.74576C8.85054 6.4873 8.93549 6.57225 8.93549 6.67703V7.81536C8.93549 7.92013 8.85054 8.00508 8.74576 8.00508H7.60743C7.50266 8.00508 7.41771 7.92013 7.41771 7.81536V6.67703C7.41771 6.57225 7.50266 6.4873 7.60743 6.4873ZM7.79715 7.62564H8.55604V6.86675H7.79715V7.62564Z" fill="#84829A"/>
<path d="M4.00272 8.76265H2.86439C2.75961 8.76265 2.67467 8.6777 2.67467 8.57293V7.4346C2.67467 7.32982 2.75961 7.24487 2.86439 7.24487H4.00272C4.1075 7.24487 4.19244 7.32982 4.19244 7.4346V8.57293C4.19244 8.6777 4.1075 8.76265 4.00272 8.76265ZM3.813 7.62432H3.05411V8.38321H3.813V7.62432Z" fill="#84829A"/>
<path d="M4.00272 6.86543H2.86439C2.75961 6.86543 2.67467 6.78049 2.67467 6.67571V5.53738C2.67467 5.4326 2.75961 5.34766 2.86439 5.34766H4.00272C4.1075 5.34766 4.19244 5.4326 4.19244 5.53738V6.67571C4.19244 6.78049 4.1075 6.86543 4.00272 6.86543ZM3.813 5.7271H3.05411V6.48599H3.813V5.7271Z" fill="#84829A"/>
<path d="M4.00272 10.6618H2.86439C2.75961 10.6618 2.67467 10.5769 2.67467 10.4721V9.33377C2.67467 9.22899 2.75961 9.14404 2.86439 9.14404H4.00272C4.1075 9.14404 4.19244 9.22899 4.19244 9.33377V10.4721C4.19244 10.5769 4.1075 10.6618 4.00272 10.6618ZM3.813 9.52349H3.05411V10.2824H3.813V9.52349Z" fill="#84829A"/>
<path d="M5.89994 8.76265H4.76161C4.65683 8.76265 4.57188 8.6777 4.57188 8.57293V7.4346C4.57188 7.32982 4.65683 7.24487 4.76161 7.24487H5.89994C6.00471 7.24487 6.08966 7.32982 6.08966 7.4346V8.57293C6.08966 8.6777 6.00471 8.76265 5.89994 8.76265ZM5.71022 7.62432H4.95133V8.38321H5.71022V7.62432Z" fill="#84829A"/>
<path d="M5.89994 6.86543H4.76161C4.65683 6.86543 4.57188 6.78049 4.57188 6.67571V5.53738C4.57188 5.4326 4.65683 5.34766 4.76161 5.34766H5.89994C6.00471 5.34766 6.08966 5.4326 6.08966 5.53738V6.67571C6.08966 6.78049 6.00471 6.86543 5.89994 6.86543ZM5.71022 5.7271H4.95133V6.48599H5.71022V5.7271Z" fill="#84829A"/>
<path d="M5.89994 10.6618H4.76161C4.65683 10.6618 4.57188 10.5769 4.57188 10.4721V9.33377C4.57188 9.22899 4.65683 9.14404 4.76161 9.14404H5.89994C6.00471 9.14404 6.08966 9.22899 6.08966 9.33377V10.4721C6.08966 10.5769 6.00471 10.6618 5.89994 10.6618ZM5.71022 9.52349H4.95133V10.2824H5.71022V9.52349Z" fill="#84829A"/>
</svg>
