<svg width="17" height="15" viewBox="0 0 17 15" fill="none" xmlns="http://www.w3.org/2000/svg">
<path d="M2.73958 8.18237C2.52851 8.18237 2.32218 8.24496 2.14668 8.36223C1.97119 8.47949 1.8344 8.64616 1.75363 8.84117C1.67286 9.03617 1.65172 9.25075 1.6929 9.45776C1.73408 9.66478 1.83572 9.85493 1.98497 10.0042C2.13422 10.1534 2.32437 10.2551 2.53138 10.2962C2.7384 10.3374 2.95297 10.3163 3.14798 10.2355C3.34298 10.1547 3.50965 10.018 3.62692 9.84246C3.74418 9.66696 3.80677 9.46063 3.80677 9.24956C3.80677 8.96653 3.69433 8.69508 3.4942 8.49495C3.29406 8.29481 3.02262 8.18237 2.73958 8.18237ZM2.73958 9.78316C2.63405 9.78316 2.53088 9.75186 2.44313 9.69323C2.35538 9.6346 2.28699 9.55126 2.24661 9.45376C2.20622 9.35626 2.19565 9.24897 2.21624 9.14546C2.23683 9.04196 2.28765 8.94688 2.36227 8.87225C2.4369 8.79763 2.53198 8.74681 2.63548 8.72622C2.73899 8.70563 2.84628 8.7162 2.94378 8.75659C3.04128 8.79697 3.12462 8.86536 3.18325 8.95311C3.24188 9.04086 3.27318 9.14403 3.27318 9.24956C3.27318 9.39108 3.21696 9.5268 3.11689 9.62687C3.01682 9.72694 2.8811 9.78316 2.73958 9.78316Z" fill="white"/>
<path d="M13.4115 8.18237C13.2004 8.18237 12.9941 8.24496 12.8186 8.36223C12.6431 8.47949 12.5063 8.64616 12.4255 8.84117C12.3447 9.03617 12.3236 9.25075 12.3648 9.45776C12.406 9.66478 12.5076 9.85493 12.6568 10.0042C12.8061 10.1534 12.9962 10.2551 13.2033 10.2962C13.4103 10.3374 13.6248 10.3163 13.8198 10.2355C14.0149 10.1547 14.1815 10.018 14.2988 9.84246C14.416 9.66696 14.4786 9.46063 14.4786 9.24956C14.4786 8.96653 14.3662 8.69508 14.1661 8.49495C13.9659 8.29481 13.6945 8.18237 13.4115 8.18237ZM13.4115 9.78316C13.3059 9.78316 13.2028 9.75186 13.115 9.69323C13.0273 9.6346 12.9589 9.55126 12.9185 9.45376C12.8781 9.35626 12.8675 9.24897 12.8881 9.14546C12.9087 9.04196 12.9595 8.94688 13.0341 8.87225C13.1088 8.79763 13.2038 8.74681 13.3074 8.72622C13.4109 8.70563 13.5181 8.7162 13.6157 8.75659C13.7132 8.79697 13.7965 8.86536 13.8551 8.95311C13.9138 9.04086 13.945 9.14403 13.945 9.24956C13.945 9.39108 13.8888 9.5268 13.7888 9.62687C13.6887 9.72694 13.553 9.78316 13.4115 9.78316Z" fill="white"/>
<path d="M5.67435 9.51636H10.4767V10.05H5.67435V9.51636Z" fill="white"/>
<path d="M5.67435 8.44922H10.4767V8.98281H5.67435V8.44922Z" fill="white"/>
<path d="M7.27513 4.44727H8.87591V4.98086H7.27513V4.44727Z" fill="white"/>
<path d="M16.0794 6.84849V6.31489C16.0788 6.10281 15.9943 5.8996 15.8443 5.74963C15.6943 5.59967 15.4911 5.51514 15.279 5.5145H14.2225L13.6702 3.57756L13.5048 2.91857C13.4614 2.74554 13.3615 2.59197 13.2208 2.48224C13.0801 2.37252 12.9068 2.31293 12.7285 2.31294H10.4767V1.24575C10.4763 1.10436 10.4199 0.968888 10.3199 0.868911C10.22 0.768934 10.0845 0.71258 9.94309 0.712158H6.20794C6.06655 0.71258 5.93107 0.768934 5.8311 0.868911C5.73112 0.968888 5.67477 1.10436 5.67434 1.24575V2.31294H3.42258C3.24418 2.31293 3.0709 2.37252 2.93024 2.48224C2.78958 2.59197 2.68961 2.74554 2.6462 2.91857L2.48345 3.57489L1.92852 5.5145H0.872C0.659918 5.51514 0.456704 5.59967 0.306738 5.74963C0.156773 5.8996 0.0722429 6.10281 0.0716095 6.31489V6.84849C0.0720416 6.98364 0.106784 7.11648 0.172581 7.23454C0.238377 7.3526 0.333074 7.45202 0.447793 7.52348C0.206609 7.77131 0.0716427 8.10346 0.0716095 8.44927V11.6508C0.0719773 11.7628 0.0959264 11.8734 0.141896 11.9754C0.187865 12.0775 0.254824 12.1687 0.338406 12.2431V13.2516C0.33904 13.4637 0.42357 13.6669 0.573535 13.8169C0.7235 13.9668 0.926715 14.0514 1.1388 14.052H3.27317C3.48525 14.0514 3.68847 13.9668 3.83843 13.8169C3.9884 13.6669 4.07293 13.4637 4.07356 13.2516V12.4512H12.0775V13.2516C12.0781 13.4637 12.1626 13.6669 12.3126 13.8169C12.4626 13.9668 12.6658 14.0514 12.8779 14.052H15.0122C15.2243 14.0514 15.4275 13.9668 15.5775 13.8169C15.7275 13.6669 15.812 13.4637 15.8126 13.2516V12.2431C15.8962 12.1687 15.9632 12.0775 16.0091 11.9754C16.0551 11.8734 16.0791 11.7628 16.0794 11.6508V8.44927C16.0794 8.10346 15.9444 7.77131 15.7032 7.52348C15.818 7.45202 15.9127 7.3526 15.9785 7.23454C16.0442 7.11648 16.079 6.98364 16.0794 6.84849ZM6.20794 1.24575H9.94309V2.31294H6.20794V1.24575ZM3.16379 3.0493C3.17809 2.99146 3.21134 2.94007 3.25824 2.90332C3.30514 2.86657 3.36299 2.84658 3.42258 2.84653H12.7285C12.788 2.84658 12.8459 2.86657 12.8928 2.90332C12.9397 2.94007 12.9729 2.99146 12.9872 3.0493L13.07 3.38013H3.08108L3.16379 3.0493ZM2.93968 3.91372H13.2114L14.1238 7.11528H6.45072C6.38802 6.74244 6.19522 6.40387 5.90655 6.1597C5.61789 5.91553 5.25204 5.78155 4.87395 5.78155C4.49587 5.78155 4.13002 5.91553 3.84136 6.1597C3.55269 6.40387 3.35989 6.74244 3.29718 7.11528H2.02723L2.93968 3.91372ZM5.90379 7.11528H3.84412C3.90237 6.88635 4.03524 6.68336 4.22174 6.53837C4.40824 6.39339 4.63773 6.31468 4.87395 6.31468C5.11018 6.31468 5.33967 6.39339 5.52617 6.53837C5.71267 6.68336 5.84554 6.88635 5.90379 7.11528ZM0.605203 6.31489C0.605203 6.24413 0.633312 6.17627 0.683346 6.12624C0.73338 6.0762 0.801241 6.0481 0.872 6.0481H1.77644L1.47229 7.11528H0.872C0.801241 7.11528 0.73338 7.08717 0.683346 7.03714C0.633312 6.98711 0.605203 6.91925 0.605203 6.84849V6.31489ZM3.53997 13.2516C3.53997 13.3224 3.51186 13.3902 3.46183 13.4403C3.41179 13.4903 3.34393 13.5184 3.27317 13.5184H1.1388C1.06804 13.5184 1.00018 13.4903 0.950143 13.4403C0.900109 13.3902 0.872 13.3224 0.872 13.2516V12.4512H3.53997V13.2516ZM15.279 13.2516C15.279 13.3224 15.2509 13.3902 15.2009 13.4403C15.1509 13.4903 15.083 13.5184 15.0122 13.5184H12.8779C12.8071 13.5184 12.7392 13.4903 12.6892 13.4403C12.6392 13.3902 12.6111 13.3224 12.6111 13.2516V12.4512H15.279V13.2516ZM15.5458 11.6508C15.5458 11.7216 15.5177 11.7895 15.4677 11.8395C15.4177 11.8895 15.3498 11.9176 15.279 11.9176H0.872C0.801241 11.9176 0.73338 11.8895 0.683346 11.8395C0.633312 11.7895 0.605203 11.7216 0.605203 11.6508V11.384H15.5458V11.6508ZM15.5458 10.8504H0.605203V8.44927C0.605837 8.23719 0.690367 8.03397 0.840332 7.88401C0.990297 7.73404 1.19351 7.64951 1.40559 7.64888H14.7454C14.9575 7.64951 15.1607 7.73404 15.3107 7.88401C15.4607 8.03397 15.5452 8.23719 15.5458 8.44927V10.8504ZM15.5458 6.84849C15.5458 6.91925 15.5177 6.98711 15.4677 7.03714C15.4177 7.08717 15.3498 7.11528 15.279 7.11528H14.6787L14.3746 6.0481H15.279C15.3498 6.0481 15.4177 6.0762 15.4677 6.12624C15.5177 6.17627 15.5458 6.24413 15.5458 6.31489V6.84849Z" fill="white"/>
</svg>
