<svg width="59" height="60" viewBox="0 0 59 60" fill="none" xmlns="http://www.w3.org/2000/svg">
<path d="M11.6284 42.8696C9.1247 40.2103 7.78046 37.2277 7.78046 32.3928C7.78046 23.8849 13.753 16.2595 22.4383 12.4893L24.609 15.8389C16.5022 20.2241 14.9173 25.9147 14.2853 29.5025C15.5907 28.8268 17.2995 28.591 18.9744 28.7466C23.3596 29.1525 26.8162 32.7525 26.8162 37.2277C26.8162 39.4841 25.9198 41.6481 24.3243 43.2436C22.7288 44.8392 20.5647 45.7355 18.3083 45.7355C17.0605 45.7246 15.8273 45.4656 14.6805 44.9736C13.5337 44.4816 12.4962 43.7664 11.6284 42.8696ZM35.9366 42.8696C33.4329 40.2103 32.0886 37.2277 32.0886 32.3928C32.0886 23.8849 38.0611 16.2595 46.7464 12.4893L48.9172 15.8389C40.8104 20.2241 39.2255 25.9147 38.5935 29.5025C39.8988 28.8268 41.6077 28.591 43.2825 28.7466C47.6677 29.1525 51.1243 32.7525 51.1243 37.2277C51.1243 39.4841 50.228 41.6481 48.6324 43.2436C47.0369 44.8392 44.8729 45.7355 42.6165 45.7355C41.3686 45.7246 40.1354 45.4656 38.9886 44.9736C37.8418 44.4816 36.8044 43.7664 35.9366 42.8696Z" fill="black" fill-opacity="0.19"/>
</svg>
