<svg width="11" height="11" viewBox="0 0 11 11" fill="none" xmlns="http://www.w3.org/2000/svg">
<g clip-path="url(#clip0_1_224)">
<path d="M10.0761 0.437141C9.8137 0.360337 3.39417 -0.278801 1.13967 2.76706C0.141182 4.11638 0.126183 5.96608 1.08964 8.26436C0.845238 8.77164 0.631284 9.306 0.456918 9.86983C0.403906 10.0412 0.499795 10.2228 0.670931 10.2757C0.702835 10.2856 0.735148 10.2902 0.767053 10.2902C0.905409 10.2902 1.03386 10.2009 1.07674 10.0617C2.79506 4.50629 8.37925 1.81868 10.0917 1.13972C10.2583 1.0736 10.481 0.555655 10.0761 0.437141Z" fill="#84829A"/>
<path d="M2.11255 8.96231C3.042 9.35223 3.97131 9.55208 4.83551 9.55208C5.61229 9.55208 6.33669 9.39236 6.96093 9.06851C8.21724 8.41679 8.98495 7.17018 9.18099 5.46305C9.38072 3.72323 9.62938 2.63346 9.83682 1.9668C7.99037 2.81853 4.03125 5.02627 2.11255 8.96231Z" fill="#84829A"/>
</g>
<defs>
<clipPath id="clip0_1_224">
<rect width="9.96042" height="9.96042" fill="white" transform="translate(0.357361 0.332275)"/>
</clipPath>
</defs>
</svg>
