<svg width="152" height="16" viewBox="0 0 152 16" fill="none" xmlns="http://www.w3.org/2000/svg">
<path d="M37.4834 14.4784L37.4382 14.3015C40.359 13.5556 50.0508 11.7446 55.5606 10.9137C67.0114 9.18692 74.8384 8.39472 92.3778 7.18585C99.746 6.67803 104.178 6.34848 106.795 6.0845C108.106 5.95228 108.949 5.83774 109.474 5.72812C109.739 5.67301 109.905 5.6225 110.006 5.57911C110.039 5.56491 110.059 5.55365 110.071 5.54633C110.095 5.48341 110.09 5.45601 110.089 5.45112C110.088 5.44854 110.083 5.42042 110.017 5.37278C109.864 5.26247 109.53 5.14966 108.927 5.06725C108.543 5.01461 106.988 4.97531 104.714 4.95269C102.457 4.93024 99.5256 4.9241 96.4195 4.93288C90.2058 4.95046 83.2991 5.02773 79.688 5.15318C72.5976 5.39955 64.1802 5.87647 59.7382 6.28314C59.2694 6.32608 58.7312 6.3594 58.5472 6.3528C58.525 6.352 58.497 6.35047 58.4693 6.34663C58.4563 6.34483 58.4325 6.3411 58.4052 6.33298L58.4041 6.33266C58.3997 6.33142 58.3855 6.32745 58.3659 6.31909C58.3318 6.34907 58.3009 6.36517 58.2887 6.37139C58.2639 6.384 58.2419 6.39174 58.2285 6.39609C58.2012 6.40494 58.175 6.41055 58.156 6.41417L58.1557 6.41422C58.0107 6.44177 57.7998 6.44177 57.6547 6.41422L57.6545 6.41417C57.6355 6.41055 57.6093 6.40494 57.582 6.39609C57.5685 6.39174 57.5466 6.384 57.5218 6.37138C57.5152 6.36803 57.5032 6.36179 57.4881 6.35204C57.4543 6.394 57.4196 6.4184 57.4047 6.42849C57.3714 6.45098 57.3401 6.46472 57.3205 6.47254M37.4834 14.4784L57.2587 6.31609M37.4834 14.4784L37.4382 14.3015L36.497 14.5419L36.6052 15.2417L37.3827 15.1976C38.6543 15.1255 42.4196 14.6654 49.5289 13.7156C61.217 12.1541 65.8849 11.614 72.9131 11.0096C79.8588 10.4122 85.381 10.1092 95.8109 9.75353C97.9821 9.67951 101.07 9.63254 103.646 9.6198C104.934 9.61343 106.091 9.61563 106.941 9.62722C107.366 9.63302 107.712 9.64115 107.957 9.65158C108.08 9.65682 108.174 9.66249 108.238 9.66831C108.252 9.66956 108.263 9.67074 108.273 9.67181C108.42 9.76757 108.423 9.89129 108.393 9.95222C108.353 10.0364 108.345 10.0408 108.312 10.0594C108.242 10.0983 108.088 10.1512 107.717 10.2139C106.986 10.3373 105.597 10.4734 102.844 10.7377C99.265 11.0813 97.1049 11.2905 95.8436 11.4178C95.2135 11.4814 94.8053 11.5248 94.556 11.5544C94.4325 11.5691 94.3426 11.581 94.2827 11.5909C94.2557 11.5954 94.2216 11.6015 94.1908 11.6101L94.1898 11.6104C94.1799 11.6131 94.137 11.625 94.0922 11.652L94.0913 11.6525C94.0749 11.6623 93.9942 11.7107 93.9482 11.8149C93.9197 11.8795 93.907 11.9611 93.9287 12.0467C93.949 12.127 93.9921 12.1817 94.0242 12.2134L94.0248 12.214C94.0714 12.2597 94.1187 12.2808 94.135 12.2877C94.1566 12.2969 94.1747 12.3021 94.1848 12.3048C94.2052 12.3102 94.2219 12.3127 94.2294 12.3137C94.2459 12.3161 94.2607 12.3171 94.2688 12.3176C94.2871 12.3187 94.3079 12.3192 94.3281 12.3196C94.37 12.3202 94.4276 12.3202 94.4974 12.3195C94.6379 12.3182 94.8376 12.3146 95.0809 12.3089C95.5682 12.2976 96.2355 12.2781 96.9654 12.2534C101.767 12.0903 105.995 12.0999 109.54 12.2794M37.4834 14.4784L109.54 12.2794M57.3205 6.47254L57.2584 6.31642M57.3205 6.47254C57.3206 6.47246 57.3208 6.47238 57.321 6.47231L57.2587 6.31609M57.3205 6.47254C57.2381 6.50532 57.1532 6.51451 57.0868 6.51451C57.0203 6.51451 56.9354 6.50528 56.853 6.47247M57.2584 6.31642C57.2585 6.31631 57.2586 6.3162 57.2587 6.31609M57.2584 6.31642C57.2485 6.33153 57.2381 6.34461 57.2283 6.3557C57.1756 6.41487 57.1182 6.43802 57.1039 6.44371C57.0979 6.44613 57.0921 6.44818 57.0868 6.4499M57.2584 6.31642L57.1891 6.14194L57.2587 6.31609M56.853 6.47247L56.9151 6.31629M56.853 6.47247C56.8529 6.47244 56.8528 6.4724 56.8528 6.47237L56.915 6.31615M56.853 6.47247C56.8333 6.46465 56.802 6.45088 56.7687 6.42836C56.7445 6.41192 56.6681 6.35771 56.6282 6.2518C56.573 6.10575 56.6219 5.96687 56.6967 5.88277C56.7532 5.81926 56.8173 5.79207 56.8408 5.7827C56.8959 5.76078 56.9491 5.7538 56.9775 5.75076C57.0127 5.74697 57.05 5.74551 57.0868 5.74551C57.1237 5.74551 57.1609 5.74697 57.1962 5.75076C57.2245 5.7538 57.2777 5.76078 57.3328 5.78267C57.3464 5.78807 57.3734 5.79942 57.4048 5.82026C57.4494 5.76646 57.4978 5.74004 57.513 5.73183C57.5666 5.70303 57.6178 5.69333 57.6317 5.6907L57.6327 5.69051C57.7035 5.67704 57.8066 5.67395 57.9052 5.67395C58.0038 5.67395 58.107 5.67704 58.1777 5.69051C58.1878 5.69242 58.2245 5.69905 58.2675 5.71746C58.3102 5.68029 58.3505 5.66233 58.3608 5.65776L58.3618 5.6573C58.3991 5.6406 58.4356 5.63137 58.4522 5.62728C58.529 5.60836 58.6644 5.58721 58.8319 5.56418C59.1801 5.51631 59.7476 5.45 60.4847 5.36988C61.9607 5.20942 64.131 4.99203 66.6213 4.75352C71.602 4.27649 77.8682 3.71446 82.4302 3.35381C92.4251 2.56371 100.333 2.10762 111.295 1.68903C118.39 1.41815 136.484 1.53138 143.817 1.89264C147.213 2.05991 148.962 2.14418 149.89 2.16159C150.359 2.1704 150.593 2.16127 150.719 2.14309C150.754 2.13794 150.774 2.13294 150.783 2.13014C150.799 2.11425 150.812 2.10077 150.821 2.08963C150.818 2.08655 150.815 2.08328 150.812 2.0798C150.807 2.07693 150.794 2.0703 150.771 2.06116C150.726 2.04301 150.656 2.02194 150.557 1.99995C150.358 1.95597 150.072 1.91531 149.681 1.87903C148.9 1.80663 147.744 1.75515 146.124 1.71802L146.132 1.36239L146.124 1.71802C144.926 1.69053 142.289 1.57959 140.262 1.47145C138.236 1.36349 135.733 1.23863 134.7 1.19396C132.757 1.11001 122.238 1.04035 117.736 1.08202C98.7737 1.25761 86.0357 1.92083 61.5598 4.03987C62.3368 3.97668 63.1141 3.91374 63.8849 3.85159C67.5432 3.5566 71.0575 3.27931 73.7123 3.07741C75.0396 2.97647 76.1526 2.89433 76.9616 2.83823C77.7554 2.78319 78.2851 2.75089 78.4178 2.7549C78.4275 2.7552 78.4425 2.75583 78.4592 2.75765C78.4674 2.75856 78.4809 2.76025 78.4969 2.76357C78.5081 2.76589 78.5437 2.77344 78.5847 2.79372L78.5855 2.79409C78.5945 2.79849 78.6421 2.8218 78.6884 2.87083C78.7498 2.77397 78.8387 2.73738 78.8534 2.73133L78.8547 2.7308C78.9025 2.71064 78.9477 2.70393 78.9612 2.70193L78.9621 2.70179C79.0325 2.69128 79.1448 2.68803 79.2664 2.68803C79.388 2.68803 79.5002 2.69128 79.5707 2.70179L79.5716 2.70193C79.5851 2.70393 79.6303 2.71064 79.6781 2.7308L79.6794 2.73133C79.6914 2.7363 79.7537 2.76193 79.8096 2.82473C79.8498 2.74317 79.9126 2.69681 79.9324 2.68339C79.9771 2.65308 80.0185 2.63978 80.033 2.63529C80.0528 2.62914 80.0703 2.62541 80.0821 2.62315C80.1531 2.60962 80.2632 2.60645 80.3702 2.60614L80.3704 2.60614C80.4828 2.60586 80.5887 2.60903 80.659 2.61952C80.6749 2.62189 80.7112 2.62764 80.7507 2.64194C80.7665 2.64767 80.8162 2.66612 80.8661 2.70883C80.9208 2.75554 81.0299 2.88656 80.98 3.07385C80.9435 3.21083 80.8421 3.27431 80.8225 3.28656L80.8221 3.28682C80.7883 3.30798 80.7579 3.31933 80.7435 3.32438C80.7122 3.33536 80.6824 3.34157 80.6639 3.3451C80.5163 3.37317 80.2911 3.37169 80.136 3.34862L80.1357 3.34859C80.1152 3.34552 80.0916 3.34147 80.0683 3.3359L80.0669 3.33558C80.055 3.33279 79.9959 3.31909 79.9381 3.28133L79.9376 3.28099C79.9286 3.27513 79.8973 3.25473 79.8646 3.21777C79.8422 3.26414 79.814 3.29691 79.794 3.31677C79.7409 3.36948 79.6841 3.39205 79.6703 3.39757L79.6696 3.39783C79.6471 3.4068 79.6273 3.41227 79.615 3.41539C79.5897 3.42182 79.5644 3.42613 79.544 3.42919C79.3853 3.45288 79.1474 3.45288 78.9888 3.42919L79.0413 3.07736L78.9888 3.42919C78.9683 3.42613 78.943 3.42182 78.9177 3.41539C78.9054 3.41227 78.8856 3.40679 78.8632 3.39783L78.8625 3.39758C78.8487 3.39207 78.7919 3.36949 78.7388 3.31675C78.7354 3.31336 78.7317 3.3096 78.7279 3.30546C78.6893 3.36516 78.6434 3.39749 78.6354 3.40316L78.6346 3.40372C78.5991 3.4292 78.5668 3.44223 78.5563 3.44641C78.5415 3.45228 78.5289 3.45621 78.5211 3.4585C78.479 3.47084 78.422 3.47921 78.3845 3.48459C78.2882 3.4984 78.1319 3.51692 77.9314 3.53871C77.528 3.58255 76.9282 3.64143 76.2294 3.70485C61.2411 5.06522 56.1428 5.61626 47.1092 6.852C40.1127 7.80902 36.0101 8.51042 25.512 10.5453L25.2169 10.6025C23.4337 10.9481 22.5603 11.1173 22.1226 11.2266C22.0491 11.245 21.9932 11.2606 21.951 11.2733C21.9849 11.2767 22.0255 11.2794 22.0738 11.2807C22.5454 11.2931 23.4446 11.1745 25.0809 10.9133L25.137 11.2646L25.081 10.9133C47.1014 7.39853 60.25 6.11962 80.8514 5.48934C83.6253 5.40448 89.8105 5.32332 95.2571 5.27927C97.9811 5.25725 100.522 5.24449 102.362 5.24521C103.281 5.24557 104.027 5.24929 104.533 5.25695C104.785 5.26077 104.981 5.26561 105.111 5.27171C105.173 5.27463 105.23 5.27829 105.273 5.28376L105.274 5.28389C105.283 5.28499 105.341 5.29176 105.398 5.31703C105.415 5.32438 105.464 5.34712 105.511 5.39585C105.566 5.45311 105.643 5.57701 105.6 5.73704C105.566 5.86209 105.478 5.92423 105.455 5.94035C105.421 5.96306 105.391 5.97515 105.378 5.98032C105.338 5.99554 105.296 6.0029 105.281 6.0056L105.28 6.00581C105.256 6.01006 105.228 6.01419 105.198 6.01821C105.138 6.02632 105.057 6.0356 104.959 6.04598C104.76 6.06682 104.479 6.09311 104.119 6.12457C103.398 6.18752 102.355 6.27173 101.017 6.37511C98.3408 6.5819 94.4799 6.86571 89.6449 7.2103C68.0216 8.7515 54.1968 10.5811 38.9783 13.9131C36.8562 14.3776 35.6402 14.676 34.9991 14.9221C34.7465 15.0191 34.6287 15.0922 34.5784 15.1329L56.915 6.31615M56.9151 6.31629C56.9252 6.33149 56.9356 6.34465 56.9455 6.35578C56.9981 6.41494 57.0555 6.43807 57.0698 6.44374C57.0758 6.44614 57.0815 6.44819 57.0868 6.4499M56.9151 6.31629C56.9151 6.31624 56.9151 6.3162 56.915 6.31615M56.9151 6.31629L56.9845 6.14194L56.915 6.31615M57.0868 6.4499C57.0603 6.45852 57.045 6.45906 57.0534 6.45815C57.0567 6.4578 57.0674 6.45697 57.0868 6.45697C57.1062 6.45697 57.117 6.4578 57.1202 6.45815C57.1287 6.45906 57.1133 6.45853 57.0868 6.4499ZM109.54 12.2794C108.701 12.3218 106.69 12.3895 104.948 12.4333C92.7899 12.7386 84.561 13.2048 76.3244 14.0559C74.4291 14.2517 73.0765 14.3708 72.1271 14.4211C71.1586 14.4725 70.6589 14.4484 70.432 14.3862L70.338 14.7293L70.432 14.3862C70.2803 14.3446 70.2594 14.2778 70.2581 14.2727C70.2567 14.2671 70.2552 14.2557 70.2636 14.2349C70.2705 14.2179 70.2856 14.1915 70.3169 14.16C70.3228 14.1583 70.3295 14.1565 70.3373 14.1545C70.3924 14.14 70.4752 14.1218 70.5886 14.1C70.8141 14.0567 71.1398 14.0031 71.5628 13.94C72.4075 13.8139 73.6257 13.6515 75.1748 13.4584C78.2724 13.0721 82.6849 12.5638 88.0622 11.9769C90.2119 11.7424 92.1755 11.5254 93.6074 11.3648C94.3233 11.2845 94.9067 11.2182 95.314 11.1709C95.5176 11.1473 95.6779 11.1283 95.7891 11.1146C95.8444 11.1077 95.8888 11.1021 95.9206 11.0978C95.9363 11.0956 95.9508 11.0936 95.9628 11.0917C95.9686 11.0907 95.9763 11.0895 95.9845 11.0879C95.9884 11.0871 95.9951 11.0858 96.0029 11.0839L96.0033 11.0838C96.0078 11.0827 96.0289 11.0777 96.0537 11.0678L96.0541 11.0676C96.0665 11.0626 96.1113 11.0446 96.1569 11.0051C96.1998 10.968 96.3279 10.8299 96.2641 10.6276C96.2188 10.4843 96.1045 10.4263 96.0869 10.4174L96.0858 10.4168C96.0521 10.3995 96.0229 10.3914 96.011 10.3882C95.9682 10.3769 95.9247 10.3741 95.9114 10.3731C95.8666 10.3699 95.8034 10.3682 95.7303 10.3673C95.5804 10.3655 95.3569 10.3668 95.0778 10.3705C94.5183 10.378 93.7245 10.3956 92.8242 10.4199C91.0236 10.4684 88.7918 10.5436 87.1482 10.618C73.0209 11.2579 66.4624 11.8323 48.8187 13.9742C42.9278 14.6894 39.3915 15.0872 37.2796 15.2335C36.2206 15.3069 35.5399 15.3154 35.1064 15.2739C34.6625 15.2314 34.5866 15.1443 34.5833 15.1405L109.54 12.2794ZM80.3714 3.01013C80.3408 3.00969 80.3102 3.00845 80.2807 3.00643C80.287 3.10137 80.3327 3.17391 80.3719 3.21804L80.3714 3.01013ZM80.3714 3.01013L80.372 3.21815C80.3756 3.22221 80.3792 3.22603 80.3826 3.2296C80.4253 3.18678 80.478 3.11354 80.4853 3.00797C80.4492 3.00997 80.4103 3.01069 80.3714 3.01013ZM57.0868 5.80308C57.0864 5.80313 57.0857 5.80322 57.0848 5.80337L57.0868 5.80308ZM57.0868 5.80308C57.0873 5.80313 57.0879 5.80321 57.0889 5.80337C57.0908 5.80368 57.1007 5.80532 57.116 5.81141C57.1161 5.81145 57.1162 5.81148 57.1163 5.81151L57.0868 5.80308ZM21.8747 11.338C21.8746 11.3381 21.8745 11.3367 21.8746 11.3338C21.8749 11.3364 21.8748 11.3379 21.8747 11.338ZM79.2394 3.24508C79.2132 3.20175 79.1942 3.14853 79.1896 3.08984C79.2148 3.09077 79.2406 3.09123 79.2664 3.09123C79.2922 3.09123 79.318 3.09077 79.3432 3.08984C79.3386 3.14854 79.3195 3.20176 79.2934 3.24509C79.2849 3.25921 79.2758 3.27206 79.2664 3.28373C79.257 3.27205 79.2479 3.2592 79.2394 3.24508ZM79.2664 3.04376C79.294 3.04376 79.3199 3.04395 79.3438 3.04431C79.3428 3.02554 79.3403 3.00636 79.336 2.98689C79.3218 2.92189 79.2924 2.8736 79.2664 2.84114C79.2403 2.8736 79.2109 2.92188 79.1967 2.98686C79.1925 3.00634 79.19 3.02553 79.189 3.04431C79.2129 3.04395 79.2387 3.04376 79.2664 3.04376ZM110.057 5.57869C110.058 5.5784 110.058 5.57811 110.058 5.57782C110.058 5.57809 110.058 5.57836 110.058 5.57864L110.057 5.57869ZM67.8072 4.99795C64.6017 5.18542 61.7196 5.38731 59.6734 5.57464L59.6955 5.81595L59.6734 5.57465C59.1969 5.61829 58.7039 5.6465 58.5728 5.6418C58.5649 5.64151 58.5615 5.64123 58.5615 5.64124C58.5615 5.64125 58.5635 5.64143 58.567 5.64192C58.5679 5.64204 58.5699 5.64231 58.5727 5.64278C58.5798 5.64396 58.5923 5.64638 58.6077 5.65094C58.6083 5.65114 58.6984 5.67303 58.771 5.75774C58.8043 5.79671 58.8364 5.85245 58.8496 5.92085C58.7157 5.93954 58.6185 5.95512 58.5611 5.96728C58.4816 5.9841 58.4785 5.99438 58.56 5.9973C58.6175 5.99936 58.7226 5.99657 58.8559 5.9901C58.8558 6.00077 58.8553 6.01165 58.8542 6.02275C58.8439 6.12633 58.7921 6.19463 58.7636 6.22585C58.7143 6.27972 58.6609 6.30301 58.6535 6.30623L58.6529 6.30651C58.6278 6.31772 58.6114 6.32079 58.6224 6.31807C58.6564 6.30971 58.7535 6.2931 58.9288 6.26901C59.1239 6.24219 59.393 6.20901 59.7279 6.1703C59.972 6.14208 60.251 6.11093 60.5616 6.07717C62.0331 5.91721 64.1999 5.70015 66.6891 5.46174C67.064 5.42583 67.4462 5.38944 67.8343 5.3527C71.6111 5.13187 75.8382 4.93101 79.6756 4.79767C86.9101 4.54634 107.322 4.48859 108.976 4.71481L67.8072 4.99795ZM117.163 12.706L117.16 12.7451L117.163 12.706ZM70.2882 14.1689C70.2884 14.1688 70.2887 14.1687 70.289 14.1686L70.2882 14.1689ZM95.8514 10.389L95.8492 10.3894C95.8525 10.3888 95.8538 10.3886 95.8514 10.389ZM105.181 5.98936C105.191 5.99056 105.189 5.99082 105.179 5.98908C105.18 5.98918 105.181 5.98927 105.181 5.98936ZM81.5299 2.58064C81.5308 2.58026 81.5318 2.57991 81.5327 2.57957C81.5487 2.58658 81.5866 2.60526 81.6247 2.6416C81.6506 2.66618 81.6965 2.71768 81.7196 2.79929C81.7417 2.87769 81.735 2.95696 81.7076 3.02544C81.7024 3.03844 81.6964 3.05105 81.6898 3.06319C81.6538 3.12902 81.6062 3.16628 81.5814 3.18326C81.5608 3.19738 81.5421 3.20676 81.5287 3.21268C81.5263 3.21158 81.5237 3.21041 81.5211 3.20917C81.5135 3.20556 81.5053 3.20133 81.4969 3.1964C81.4824 3.18797 81.4201 3.15072 81.3748 3.07531C81.3516 3.03667 81.3328 2.98801 81.3274 2.92807C81.3105 2.7445 81.4333 2.64225 81.4566 2.62378C81.4719 2.61176 81.4863 2.60261 81.4983 2.59587C81.504 2.59265 81.5092 2.58999 81.5136 2.58782C81.5217 2.58392 81.5274 2.58166 81.5297 2.58074L81.5299 2.58064ZM81.4633 3.2325C81.4635 3.23244 81.4649 3.2322 81.468 3.23187C81.4648 3.23241 81.4632 3.23258 81.4633 3.2325ZM81.3276 3.25846C81.4035 3.27801 81.4831 3.28503 81.5525 3.28418C81.6154 3.28341 81.7072 3.27593 81.7938 3.24135C81.8132 3.23359 81.8549 3.21585 81.8975 3.18217C81.9274 3.15855 82.0531 3.05138 82.0358 2.86315C82.0192 2.6816 81.884 2.59853 81.8551 2.58172C81.8104 2.55567 81.7691 2.54399 81.7494 2.53894C81.674 2.51955 81.583 2.51722 81.5128 2.51806C81.4724 2.51854 81.4329 2.52029 81.3971 2.52395C81.3716 2.52655 81.313 2.533 81.2543 2.5564L81.2529 2.55697C81.2349 2.56399 81.1292 2.60541 81.0654 2.72214C81.0227 2.80033 81.0079 2.89699 81.0348 2.99249C81.0585 3.0763 81.106 3.13005 81.1342 3.15693C81.1868 3.20702 81.2425 3.22963 81.2595 3.23646C81.2851 3.24674 81.3092 3.25372 81.3276 3.25846ZM80.3839 2.73206C80.4251 2.77367 80.4748 2.84397 80.4845 2.94769C80.4849 2.95291 80.4853 2.95808 80.4856 2.96317C80.4523 2.96223 80.414 2.96176 80.3713 2.96187C80.3378 2.96197 80.3075 2.9624 80.2806 2.96312C80.282 2.94002 80.2858 2.91581 80.2925 2.89055C80.3096 2.82672 80.3408 2.77935 80.3706 2.74607C80.3707 2.74604 80.3707 2.74602 80.3707 2.74599C80.3752 2.74104 80.3796 2.7364 80.3839 2.73206ZM57.8526 5.83074C57.87 5.80859 57.8884 5.79091 57.9052 5.7771C57.9221 5.79091 57.9404 5.80859 57.9579 5.83076C57.9843 5.86417 58.0162 5.91741 58.0286 5.98965C58.031 6.00404 58.0326 6.01832 58.0332 6.03242C57.9986 6.03066 57.9557 6.02968 57.9052 6.02968C57.8548 6.02968 57.8118 6.03066 57.7773 6.03242C57.7779 6.01831 57.7795 6.00402 57.7819 5.98963C57.7943 5.91739 57.8262 5.86416 57.8526 5.83074ZM58.0328 6.07286C57.9934 6.07705 57.9493 6.07915 57.9052 6.07915C57.8612 6.07915 57.8171 6.07705 57.7777 6.07286C57.7807 6.11867 57.7927 6.16188 57.8108 6.20018C57.8376 6.25695 57.8744 6.29602 57.9052 6.32137C57.936 6.29603 57.9728 6.25696 57.9997 6.2002C58.0178 6.1619 58.0297 6.11868 58.0328 6.07286ZM81.6619 2.91099C81.6279 2.92455 81.5733 2.93032 81.5177 2.92803C81.4826 2.92658 81.4472 2.92192 81.4163 2.91398C81.359 2.89922 81.3664 2.88571 81.4254 2.87869C81.4484 2.87596 81.4792 2.87421 81.5171 2.87376C81.5761 2.87305 81.6218 2.87585 81.6499 2.88108C81.686 2.8878 81.693 2.89854 81.6619 2.91099Z" fill="#553214" stroke="#553214" stroke-width="0.711458"/>
</svg>
