<svg width="134" height="15" viewBox="0 0 134 15" fill="none" xmlns="http://www.w3.org/2000/svg">
<path fill-rule="evenodd" clip-rule="evenodd" d="M106.413 0.73503C91.9342 0.947086 81.6755 1.45294 67.4051 2.65837C55.6674 3.6499 47.8882 4.45555 34.6059 6.05527C26.7956 6.99591 23.7366 7.4309 17.5237 8.48415C12.6306 9.3137 9.57275 9.79957 6.67675 10.2077C2.36665 10.815 0.847412 11.0968 0.847412 11.2888C0.847412 11.3734 0.991006 11.394 1.11445 11.3271C1.22152 11.2691 1.80778 11.1816 5.40839 10.6858C8.42267 10.2707 10.6481 9.93692 15.1256 9.22828C25.1704 7.6386 26.1006 7.51808 41.6776 5.78893C63.7634 3.33719 81.699 2.03563 98.9131 1.63546C115.26 1.25544 128.72 1.41085 132.173 2.0194C132.744 2.11993 132.747 2.1113 132.097 2.27391C130.585 2.65241 127.195 3.08916 120.496 3.7685C112.847 4.54429 108.697 4.90437 96.2569 5.87167C86.7842 6.60825 86.5564 6.62832 74.0462 7.83047C60.942 9.08969 55.1713 9.69428 47.3345 10.6291C44.5671 10.9591 44.3341 10.9839 40.9279 11.3101C34.1503 11.9593 28.33 12.6655 22.6152 13.532C20.7546 13.8142 20.419 13.9413 20.9054 14.1798C21.297 14.3718 24.5471 14.042 32.6136 12.9919C42.5691 11.6958 43.9708 11.5382 49.6958 11.0707C57.9034 10.4006 64.745 9.9661 70.4674 9.75169C76.201 9.53683 85.7887 9.26322 90.9807 9.16628C93.8806 9.11212 105.112 9.06955 105.672 9.1106L106.107 9.1425L105.702 9.19562C104.995 9.2882 92.4676 10.6047 86.9592 11.1653C85.2344 11.3408 82.744 11.5852 81.4251 11.7084C77.1252 12.1101 67.9004 13.0511 66.2738 13.2539C65.2578 13.3807 64.9016 13.6383 65.3824 13.8988C65.71 14.0762 67.9079 14.0916 72.6811 13.9498C73.8174 13.9161 75.9093 13.8605 77.3298 13.8263C78.7502 13.7921 80.8732 13.7197 82.0475 13.6653C83.2219 13.611 84.9818 13.5472 85.9584 13.5236C86.935 13.5 88.1657 13.4666 88.6933 13.4494L89.6525 13.4182L88.804 13.4119C87.6933 13.4037 85.0793 13.3395 82.8639 13.2659C80.2659 13.1796 74.5757 13.199 71.9435 13.3032C71.6459 13.315 71.5413 13.3085 71.624 13.2835C71.7853 13.2346 78.4905 12.555 81.6464 12.2677C91.1834 11.3995 107.488 9.67314 108.305 9.44501C109.03 9.24263 108.975 8.88851 108.192 8.71119C106.788 8.39344 93.8376 8.45257 82.2367 8.82971C81.2424 8.86201 78.9181 8.93408 77.0715 8.98984C70.127 9.19954 63.3022 9.50181 60.7272 9.71383C60.5649 9.72718 60.4511 9.72722 60.4744 9.71395C60.5682 9.66039 78.5377 7.93448 85.5083 7.30954C87.0845 7.1682 91.6502 6.79981 95.6543 6.49081C109.571 5.41694 112.784 5.13981 121.197 4.28774C131.585 3.23562 134.408 2.70929 133.816 1.93462C133.322 1.28961 130.496 0.995772 122.636 0.772244C120.756 0.71876 109.315 0.692499 106.413 0.73503Z" fill="white"/>
</svg>
