<svg width="223" height="28" viewBox="0 0 223 28" fill="none" xmlns="http://www.w3.org/2000/svg">
<path fill-rule="evenodd" clip-rule="evenodd" d="M168.087 7.41516C136.993 4.73438 128.091 4.08824 110.775 3.25584C92.8302 2.39321 79.964 2.02493 59.5157 1.78863C54.7753 1.73385 49.7044 1.62639 43.7639 1.45473C21.9422 0.824113 17.6856 0.807106 10.5615 1.32156C7.03178 1.57658 3.98907 1.6949 2.29515 1.64335C0.78913 1.59739 0.51181 1.6335 0.488061 1.8785C0.467074 2.09502 2.842 2.5167 4.16197 2.53074C4.635 2.53591 5.91554 2.5603 7.00772 2.58522C8.09991 2.61001 10.5072 2.62577 12.3572 2.62021C16.7137 2.60692 18.7985 2.67166 26.2466 3.05147C38.7677 3.69 48.2378 4.05524 59.8852 4.34887C64.1776 4.45702 69.8768 4.60068 72.5502 4.66805C92.8257 5.17881 117.546 6.27795 132.614 7.33883C150.899 8.62599 207.561 13.6892 206.571 13.9473C206.178 14.0497 199.599 14.4563 195.662 14.6215C192.046 14.7734 186.016 14.9134 178.605 15.0176C175.09 15.0671 170.265 15.1395 167.883 15.1786C158.936 15.3254 155.991 15.3544 150.916 15.3463C127.538 15.3089 112.051 15.7497 90.4265 17.0677C77.573 17.8511 66.9736 19.1533 55.067 21.412C48.2976 22.6962 47.6231 22.9754 48.151 24.2758C48.4947 25.1219 51.8062 25.5482 58.5621 25.616C70.9085 25.74 82.4937 26.031 93.6986 26.4984C100.727 26.7917 101.659 26.817 108.825 26.9092C111.502 26.9438 116.123 27.0629 119.094 27.1741L124.496 27.3763L117.369 26.5589C106.57 25.3201 94.9645 24.2068 91.1231 24.0413C78.4051 23.4931 71.4727 23.348 60.1221 23.3923C57.4167 23.4029 55.1372 23.3817 55.0564 23.3453C54.278 22.9929 72.6975 20.5944 81.4401 19.9097C101.175 18.3638 121.404 17.7439 152.4 17.7349C155.231 17.7341 160.918 17.6833 165.039 17.6221C169.159 17.5608 175.653 17.4651 179.471 17.4091C194.165 17.194 198.554 17.0088 212.754 16.0053C221.848 15.3626 221.897 15.3543 222.237 14.3848C222.611 13.3189 221.942 12.754 219.902 12.4133C217.964 12.0896 181.437 8.56611 168.087 7.41516ZM125.086 27.3223C125.252 27.3719 125.497 27.3944 125.63 27.3722C125.763 27.3501 125.627 27.3094 125.328 27.282C125.029 27.2545 124.92 27.2727 125.086 27.3223Z" fill="white"/>
</svg>
