<svg width="11" height="11" viewBox="0 0 11 11" fill="none" xmlns="http://www.w3.org/2000/svg">
<path d="M9.65683 0.622559C9.60158 0.622538 9.54707 0.635377 9.49765 0.660076L6.80198 2.00828L3.75379 0.653323C3.74881 0.651197 3.74312 0.650822 3.73778 0.648696C3.72407 0.643569 3.71004 0.639296 3.6958 0.635898C3.68165 0.632084 3.66727 0.629103 3.65276 0.626998C3.62387 0.624622 3.59484 0.624622 3.56597 0.626998C3.55147 0.629103 3.53708 0.632084 3.52293 0.635898C3.5087 0.639296 3.49467 0.643569 3.48095 0.648696C3.47562 0.650822 3.46993 0.651176 3.46495 0.653323L0.263432 2.07622C0.134913 2.13329 0.0521032 2.26073 0.052124 2.40134V10.2273C0.0521866 10.3476 0.11307 10.4598 0.213971 10.5254C0.314894 10.5911 0.442183 10.6012 0.552256 10.5524L3.60935 9.19353L6.66644 10.5524C6.67177 10.5545 6.67746 10.5524 6.6828 10.5556C6.76892 10.5941 6.86778 10.5919 6.95207 10.5496C6.95776 10.5471 6.96416 10.5496 6.96985 10.5456L9.81563 9.12274C9.93623 9.06249 10.0124 8.9392 10.0124 8.80436V0.978456C10.0125 0.781988 9.85328 0.622642 9.65683 0.622559ZM3.25364 8.57315L0.763564 9.6798V2.63257L3.25364 1.5259V8.57315ZM6.45515 9.6798L3.96508 8.57315V1.5259L6.45515 2.63255V9.6798ZM9.30093 8.58453L7.16659 9.6517V2.62117L9.30093 1.554V8.58453Z" fill="#84829A"/>
</svg>
