<svg width="11" height="11" viewBox="0 0 11 11" fill="none" xmlns="http://www.w3.org/2000/svg">
<path d="M9.41889 1.21513L4.92425 5.72637C4.87273 5.69652 4.81854 5.67151 4.76239 5.65167L1.79502 4.64733C1.70528 4.62484 1.62563 4.57301 1.56872 4.50007C1.51181 4.42713 1.4809 4.33727 1.4809 4.24476C1.4809 4.15225 1.51181 4.06238 1.56872 3.98945C1.62563 3.91651 1.70528 3.86468 1.79502 3.84219L9.15743 1.22343C9.20555 1.20709 9.25601 1.19868 9.30684 1.19853C9.34484 1.19792 9.38269 1.20353 9.41889 1.21513Z" fill="#84829A"/>
<path d="M9.70503 1.77123L7.08627 9.14194C7.05739 9.22784 7.00119 9.30192 6.92625 9.35288C6.85131 9.40384 6.76175 9.42887 6.67125 9.42415C6.5797 9.42834 6.48935 9.40211 6.41427 9.34956C6.3392 9.29701 6.28363 9.22109 6.25623 9.13364L5.26849 6.16626C5.24865 6.11012 5.22364 6.05593 5.19379 6.0044L9.71333 1.50977C9.73882 1.59554 9.73591 1.68725 9.70503 1.77123Z" fill="#84829A"/>
</svg>
