<svg width="16" height="17" viewBox="0 0 16 17" fill="none" xmlns="http://www.w3.org/2000/svg">
<path d="M0.639038 3.66288C0.428042 3.66288 0.255408 3.49025 0.251573 3.27926V0.866226C0.251573 0.651393 0.424206 0.47876 0.639038 0.47876H3.05207C3.26306 0.47876 3.4357 0.651393 3.4357 0.866226V1.70637H12.7195V0.866226C12.7195 0.655229 12.8922 0.482596 13.1032 0.47876H15.5162C15.7272 0.47876 15.8998 0.651393 15.9037 0.866226V3.27926C15.9037 3.49025 15.731 3.66288 15.5162 3.66288H14.676V12.9467H15.5162C15.7272 12.9467 15.8998 13.1194 15.9037 13.3303V15.7434C15.9037 15.9544 15.731 16.127 15.5162 16.1308H13.1032C12.8922 16.1308 12.7195 15.9582 12.7195 15.7434V14.9032H3.4357V15.7434C3.4357 15.9544 3.26306 16.127 3.05207 16.1308H0.639038C0.428042 16.1308 0.255408 15.9582 0.251573 15.7434V13.3303C0.251573 13.1194 0.424206 12.9467 0.639038 12.9467H1.47919V3.66288H0.639038ZM15.1364 2.89563V1.24602H13.4868V2.89563H15.1364ZM13.4868 15.3636H15.1364V13.714H13.4868V15.3636ZM3.4357 13.3303V14.136H12.7195V13.3303C12.7195 13.1194 12.8922 12.9467 13.1032 12.9467H13.9088V3.66288H13.1032C12.8922 3.66288 12.7195 3.49025 12.7195 3.27926V2.47363H3.4357V3.27926C3.4357 3.49025 3.26306 3.66288 3.05207 3.66288H2.24645V12.9467H3.05207C3.26306 12.9467 3.4357 13.1194 3.4357 13.3303ZM1.01883 13.714V15.3636H2.66844V13.714H1.01883ZM2.66844 2.89563V1.24602H1.01883V2.89563H2.66844Z" fill="white"/>
</svg>
