<svg width="60" height="12" viewBox="0 0 60 12" fill="none" xmlns="http://www.w3.org/2000/svg">
<path d="M1.67188 11.166L5.91692 2.67588C6.46476 1.5802 8.02835 1.5802 8.57619 2.67588L11.4916 8.50668C12.0394 9.60237 13.603 9.60237 14.1509 8.50668L17.0663 2.67588C17.6141 1.5802 19.1777 1.5802 19.7256 2.67588L22.641 8.50668C23.1888 9.60237 24.7524 9.60237 25.3002 8.50668L28.2156 2.67588C28.7635 1.5802 30.3271 1.5802 30.8749 2.67588L33.7903 8.50668C34.3382 9.60237 35.9017 9.60237 36.4496 8.50668L39.365 2.67588C39.9128 1.5802 41.4764 1.5802 42.0243 2.67588L44.9397 8.50668C45.4875 9.60237 47.0511 9.60237 47.5989 8.50668L50.5144 2.67588C51.0622 1.5802 52.6258 1.5802 53.1736 2.67588L57.4187 11.166" stroke="#DF6951" stroke-width="3.71645"/>
</svg>
