<svg width="16" height="14" viewBox="0 0 16 14" fill="none" xmlns="http://www.w3.org/2000/svg">
<path d="M14.368 13.6275C14.0477 13.634 13.7331 13.5424 13.4664 13.3649C13.268 13.2352 13.036 13.1661 12.7989 13.1661C12.5618 13.1661 12.3298 13.2352 12.1314 13.3649C11.862 13.5364 11.5493 13.6275 11.23 13.6275C10.9106 13.6275 10.5979 13.5364 10.3286 13.3649C10.1301 13.2351 9.89807 13.1659 9.66091 13.1659C9.42375 13.1659 9.19173 13.2351 8.99325 13.3649C8.72389 13.5364 8.41118 13.6275 8.09186 13.6275C7.77253 13.6275 7.45983 13.5364 7.19046 13.3649C6.99212 13.2352 6.76026 13.1661 6.52326 13.1661C6.28626 13.1661 6.0544 13.2352 5.85607 13.3649C5.61184 13.5272 5.32683 13.6174 5.0337 13.6252L5.01755 13.1637C5.23407 13.1586 5.44434 13.09 5.62233 12.9666C5.89162 12.7952 6.20425 12.7041 6.52349 12.7041C6.84274 12.7041 7.15536 12.7952 7.42466 12.9666C7.62312 13.0964 7.85509 13.1655 8.0922 13.1655C8.32931 13.1655 8.56128 13.0964 8.75974 12.9666C9.02915 12.795 9.34194 12.7039 9.66137 12.7039C9.9808 12.7039 10.2936 12.795 10.563 12.9666C10.7615 13.0964 10.9934 13.1655 11.2305 13.1655C11.4677 13.1655 11.6996 13.0964 11.8981 12.9666C12.1675 12.7952 12.4802 12.7041 12.7995 12.7041C13.1188 12.7041 13.4315 12.7952 13.7009 12.9666C13.8998 13.0967 14.1324 13.1659 14.37 13.1659C14.6077 13.1659 14.8402 13.0967 15.0392 12.9666C15.3055 12.7897 15.6196 12.6982 15.9393 12.7045V13.166C15.7013 13.1595 15.4673 13.2291 15.2716 13.3647C15.0042 13.5424 14.6889 13.6341 14.368 13.6275Z" fill="white"/>
<path d="M1.8139 13.6289C1.4937 13.6355 1.17915 13.5439 0.912613 13.3663C0.716874 13.2306 0.482931 13.161 0.244843 13.1674V12.706C0.56512 12.6993 0.879745 12.7909 1.14636 12.9685C1.34199 13.1043 1.57587 13.174 1.8139 13.1674C2.05203 13.174 2.28601 13.1042 2.48167 12.9683C2.74771 12.7908 3.06182 12.6992 3.38157 12.706C3.69356 12.6989 4.0004 12.7864 4.26185 12.9568L4.02903 13.355C3.83805 13.2265 3.61167 13.1609 3.38157 13.1674C3.14442 13.161 2.91143 13.2306 2.71656 13.3659C2.44972 13.544 2.13463 13.6358 1.8139 13.6289Z" fill="white"/>
<path d="M14.3647 12.0134C14.0442 12.02 13.7294 11.9283 13.4625 11.7508C13.2639 11.621 13.0317 11.5519 12.7944 11.5519C12.5571 11.5519 12.3249 11.621 12.1263 11.7508C11.8569 11.9223 11.5443 12.0133 11.225 12.0133C10.9057 12.0133 10.5931 11.9223 10.3237 11.7508C10.1253 11.6211 9.89343 11.552 9.6564 11.552C9.41936 11.552 9.18747 11.6211 8.98909 11.7508C8.71977 11.9223 8.4071 12.0134 8.08781 12.0134C7.76851 12.0134 7.45585 11.9223 7.18652 11.7508C6.98814 11.6211 6.75625 11.552 6.51921 11.552C6.28218 11.552 6.05028 11.6211 5.8519 11.7508C5.58538 11.9284 5.27083 12.0201 4.95062 12.0134C4.63042 12.0201 4.31587 11.9284 4.04934 11.7508C3.85378 11.6151 3.61998 11.5454 3.38203 11.5519C3.14416 11.5455 2.91044 11.6152 2.71495 11.7508C2.44884 11.9282 2.1348 12.0199 1.81505 12.0134C1.49477 12.0201 1.18015 11.9284 0.913536 11.7508C0.717583 11.6149 0.483257 11.5452 0.244843 11.5519V11.0904C0.565044 11.0838 0.879586 11.1755 1.14613 11.353C1.34187 11.4887 1.57581 11.5584 1.8139 11.5519C2.05177 11.5584 2.28548 11.4887 2.48098 11.353C2.74708 11.1756 3.06113 11.084 3.38087 11.0904C3.70132 11.0836 4.01613 11.1753 4.28285 11.353C4.47848 11.4888 4.71237 11.5585 4.95039 11.5519C5.18841 11.5585 5.4223 11.4888 5.61793 11.353C5.88724 11.1815 6.19991 11.0904 6.51921 11.0904C6.83851 11.0904 7.15118 11.1815 7.4205 11.353C7.61891 11.4828 7.85085 11.5519 8.08792 11.5519C8.325 11.5519 8.55693 11.4828 8.75535 11.353C9.02466 11.1815 9.33733 11.0904 9.65663 11.0904C9.97593 11.0904 10.2886 11.1815 10.5579 11.353C10.7563 11.4828 10.9883 11.5519 11.2253 11.5519C11.4624 11.5519 11.6943 11.4828 11.8928 11.353C12.1624 11.1816 12.4752 11.0905 12.7947 11.0905C13.1142 11.0905 13.4271 11.1816 13.6967 11.353C13.8955 11.4827 14.1277 11.5518 14.3651 11.5518C14.6024 11.5518 14.8346 11.4827 15.0334 11.353C15.3003 11.1756 15.615 11.0839 15.9354 11.0904V11.5519C15.6968 11.5452 15.4624 11.6149 15.2662 11.7508C14.9995 11.9282 14.685 12.0198 14.3647 12.0134Z" fill="white"/>
<path d="M14.3656 10.3968C14.0453 10.4033 13.7307 10.3117 13.464 10.1342C13.2683 9.99848 13.0344 9.9288 12.7963 9.93528C12.6215 9.92928 12.448 9.96654 12.2912 10.0437L12.0877 9.62839C12.308 9.52043 12.551 9.46716 12.7963 9.4731C13.1169 9.46657 13.4319 9.55846 13.6987 9.73638C13.8977 9.86643 14.1302 9.93569 14.3679 9.93569C14.6055 9.93569 14.8381 9.86643 15.037 9.73638C15.3033 9.55928 15.6172 9.46767 15.9369 9.4738V9.93528C15.6989 9.92877 15.4649 9.99836 15.2692 10.134C15.0018 10.3117 14.6865 10.4034 14.3656 10.3968Z" fill="white"/>
<path d="M11.2236 10.3977C10.9039 10.4044 10.5898 10.3128 10.3237 10.1353C10.1252 10.0055 9.89321 9.93637 9.65605 9.93637C9.41889 9.93637 9.18687 10.0055 8.9884 10.1353C8.71903 10.3068 8.40633 10.3979 8.087 10.3979C7.76767 10.3979 7.45497 10.3068 7.1856 10.1353C6.98714 10.0056 6.75517 9.93649 6.51806 9.93649C6.28095 9.93649 6.04898 10.0056 5.85052 10.1353C5.58403 10.3126 5.2697 10.4042 4.9497 10.3977C4.6295 10.4043 4.31495 10.3127 4.04841 10.1351C3.85267 9.9994 3.61873 9.92972 3.38064 9.9362C3.1435 9.9298 2.91051 9.99933 2.71564 10.1346C2.44906 10.3125 2.13431 10.4043 1.8139 10.3977C1.4937 10.4043 1.17915 10.3127 0.912614 10.1351C0.716874 9.9994 0.482931 9.92972 0.244843 9.9362V9.47471C0.56512 9.46806 0.879745 9.5597 1.14636 9.7373C1.34199 9.87304 1.57587 9.94272 1.8139 9.9362C2.05203 9.94274 2.28601 9.87296 2.48167 9.73706C2.74771 9.55957 3.06182 9.46799 3.38157 9.47471C3.70177 9.46811 4.0163 9.55975 4.28285 9.7373C4.47848 9.87304 4.71237 9.94272 4.95039 9.9362C5.18848 9.94268 5.42242 9.87299 5.61816 9.7373C5.88753 9.5658 6.20023 9.47471 6.51956 9.47471C6.83889 9.47471 7.15159 9.5658 7.42096 9.7373C7.61942 9.86704 7.85139 9.93614 8.0885 9.93614C8.32561 9.93614 8.55758 9.86704 8.75604 9.7373C9.02545 9.56568 9.33824 9.47452 9.65767 9.47452C9.97709 9.47452 10.2899 9.56568 10.5593 9.7373C10.7626 9.87403 11.0037 9.94351 11.2485 9.93596C11.2663 9.93619 11.2841 9.93527 11.3018 9.9332L11.3632 10.3905C11.3169 10.3959 11.2702 10.3983 11.2236 10.3977Z" fill="white"/>
<path d="M14.3647 8.78221C14.0442 8.78875 13.7294 8.69713 13.4625 8.51963C13.2639 8.38981 13.0317 8.32068 12.7944 8.32068C12.5571 8.32068 12.3249 8.38981 12.1263 8.51963C11.8569 8.69108 11.5443 8.78214 11.225 8.78214C10.9057 8.78214 10.5931 8.69108 10.3237 8.51963C10.1253 8.3899 9.89343 8.3208 9.6564 8.3208C9.41936 8.3208 9.18747 8.3899 8.98909 8.51963C8.71977 8.69113 8.4071 8.78223 8.08781 8.78223C7.76851 8.78223 7.45585 8.69113 7.18652 8.51963C6.98814 8.3899 6.75625 8.3208 6.51921 8.3208C6.28218 8.3208 6.05028 8.3899 5.8519 8.51963C5.58538 8.69722 5.27083 8.78886 4.95062 8.78221C4.63042 8.78886 4.31587 8.69722 4.04934 8.51963C3.85378 8.38392 3.61998 8.31423 3.38203 8.32073C3.14416 8.31427 2.91044 8.38395 2.71495 8.51963C2.44884 8.69701 2.1348 8.78865 1.81505 8.78221C1.49477 8.78886 1.18015 8.69722 0.913536 8.51963C0.717583 8.38365 0.483257 8.31395 0.244843 8.32073V7.85924C0.565044 7.85262 0.879586 7.94426 1.14613 8.12183C1.34187 8.25753 1.57581 8.32721 1.8139 8.32073C2.05177 8.32719 2.28548 8.2575 2.48098 8.12183C2.74708 7.94444 3.06113 7.8528 3.38087 7.85924C3.70132 7.85243 4.01613 7.94409 4.28285 8.12183C4.47848 8.25757 4.71237 8.32725 4.95039 8.32073C5.18841 8.32725 5.4223 8.25757 5.61793 8.12183C5.88724 7.9503 6.19991 7.85918 6.51921 7.85918C6.83851 7.85918 7.15118 7.9503 7.4205 8.12183C7.61891 8.25158 7.85085 8.32068 8.08792 8.32068C8.325 8.32068 8.55693 8.25158 8.75535 8.12183C9.02466 7.9503 9.33733 7.85918 9.65663 7.85918C9.97593 7.85918 10.2886 7.9503 10.5579 8.12183C10.7563 8.25158 10.9883 8.32068 11.2253 8.32068C11.4624 8.32068 11.6943 8.25158 11.8928 8.12183C12.1624 7.95036 12.4752 7.8593 12.7947 7.8593C13.1142 7.8593 13.4271 7.95036 13.6967 8.12183C13.8955 8.25154 14.1277 8.32061 14.3651 8.32061C14.6024 8.32061 14.8346 8.25154 15.0334 8.12183C15.3003 7.94437 15.615 7.85275 15.9354 7.85924V8.32073C15.6968 8.31398 15.4624 8.38367 15.2662 8.51963C14.9995 8.69699 14.685 8.78861 14.3647 8.78221Z" fill="white"/>
<path d="M11.0754 8.58701L10.64 8.43425C10.7522 8.11207 10.798 7.77053 10.7747 7.43018C10.7514 7.08983 10.6595 6.7577 10.5046 6.45379L8.9196 3.35006C8.90395 3.31941 8.89536 3.28565 8.89445 3.25124C8.89353 3.21684 8.90033 3.18267 8.91433 3.15124C8.92833 3.1198 8.94919 3.09189 8.97538 3.06956C9.00156 3.04723 9.03241 3.03104 9.06566 3.02217L12.2243 2.17996C12.3272 2.15304 12.4154 2.08656 12.4695 1.99499C12.5237 1.90342 12.5395 1.79416 12.5136 1.69099C12.4876 1.58782 12.4219 1.49907 12.3308 1.44407C12.2398 1.38906 12.1307 1.37225 12.0273 1.39728L8.2043 2.31102C8.12257 2.33033 8.04639 2.3682 7.98165 2.42169C7.91692 2.47518 7.86536 2.54285 7.83098 2.61946C7.7966 2.69608 7.78031 2.77958 7.78339 2.8635C7.78647 2.94742 7.80882 3.0295 7.84872 3.10339L8.98398 5.21239C9.01278 5.26599 9.01923 5.3288 9.00195 5.38714C8.98466 5.44548 8.94503 5.49463 8.89168 5.52389L7.42646 6.33149L7.2038 5.92723L8.46873 5.22992L7.44285 3.32214C7.36946 3.18595 7.32837 3.0347 7.32278 2.8801C7.31718 2.72549 7.34721 2.57167 7.41056 2.43052C7.4739 2.28938 7.56886 2.1647 7.68809 2.06611C7.80732 1.96753 7.94762 1.89769 8.09816 1.862L11.9193 0.948484C12.1417 0.892274 12.3774 0.926736 12.5744 1.04429C12.7715 1.16184 12.9137 1.35285 12.97 1.5753C13.0262 1.79775 12.9917 2.03342 12.8742 2.23046C12.7566 2.4275 12.5656 2.56978 12.3431 2.62599L9.46023 3.39436L10.9158 6.24358C11.099 6.60323 11.2077 6.99624 11.2351 7.39897C11.2626 7.8017 11.2082 8.20582 11.0754 8.58701Z" fill="white"/>
<path d="M6.39866 6.37482L3.59462 7.91992L3.81723 8.32391L6.62127 6.7788L6.39866 6.37482Z" fill="white"/>
<path d="M13.1661 7.05123C12.8238 7.05123 12.4892 6.94974 12.2046 6.75958C11.92 6.56942 11.6982 6.29914 11.5672 5.98292C11.4362 5.6667 11.402 5.31874 11.4687 4.98304C11.5355 4.64735 11.7003 4.33899 11.9424 4.09696C12.1844 3.85494 12.4927 3.69012 12.8284 3.62334C13.1641 3.55657 13.5121 3.59084 13.8283 3.72182C14.1445 3.8528 14.4148 4.07462 14.605 4.35921C14.7951 4.6438 14.8966 4.97839 14.8966 5.32066C14.8961 5.77949 14.7137 6.21938 14.3892 6.54382C14.0648 6.86826 13.6249 7.05075 13.1661 7.05123ZM13.1661 4.05157C12.9151 4.05157 12.6697 4.12601 12.461 4.26545C12.2523 4.4049 12.0896 4.60311 11.9936 4.835C11.8975 5.0669 11.8724 5.32207 11.9214 5.56825C11.9703 5.81443 12.0912 6.04056 12.2687 6.21804C12.4462 6.39553 12.6723 6.5164 12.9185 6.56536C13.1647 6.61433 13.4198 6.5892 13.6517 6.49314C13.8836 6.39709 14.0818 6.23443 14.2213 6.02573C14.3607 5.81703 14.4351 5.57166 14.4351 5.32066C14.4347 4.98421 14.3009 4.66166 14.063 4.42375C13.8251 4.18585 13.5025 4.052 13.1661 4.05157Z" fill="white"/>
</svg>
